<svg xmlns="http://www.w3.org/2000/svg" xmlns:xlink="http://www.w3.org/1999/xlink" width="20" height="20" viewBox="0 0 20 20">
  <defs>
    <clipPath id="clip-path">
      <rect id="Rectangle_18463" data-name="Rectangle 18463" width="20" height="20" transform="translate(1371 147)" fill="#0d47a1" stroke="#707070" stroke-width="1"/>
    </clipPath>
  </defs>
  <g id="Mask_Group_308" data-name="Mask Group 308" transform="translate(-1371 -147)" clip-path="url(#clip-path)">
    <g id="menu-1" transform="translate(1368.692 144.692)">
      <path id="Path_41989" data-name="Path 41989" d="M21.538,7.949H3.077a.769.769,0,0,1,0-1.538H21.538a.769.769,0,0,1,0,1.538Z" fill="#0d47a1"/>
      <path id="Path_41990" data-name="Path 41990" d="M21.538,13.077H3.077a.769.769,0,1,1,0-1.538H21.538a.769.769,0,0,1,0,1.538Z" fill="#0d47a1"/>
      <path id="Path_41991" data-name="Path 41991" d="M21.538,18.205H3.077a.769.769,0,1,1,0-1.538H21.538a.769.769,0,0,1,0,1.538Z" fill="#0d47a1"/>
    </g>
  </g>
</svg>
