<svg xmlns="http://www.w3.org/2000/svg" xmlns:xlink="http://www.w3.org/1999/xlink" width="20" height="20" viewBox="0 0 20 20">
  <defs>
    <clipPath id="clip-path">
      <rect id="Rectangle_18469" data-name="Rectangle 18469" width="20" height="20" fill="#e63946" stroke="#707070" stroke-width="1"/>
    </clipPath>
  </defs>
  <g id="Mask_Group_309" data-name="Mask Group 309" clip-path="url(#clip-path)">
    <path id="heart" d="M16.44,3.1A5.549,5.549,0,0,0,12,5.332,5.552,5.552,0,0,0,2,8.692,10.679,10.679,0,0,0,2.52,12c1.58,5,6.45,7.99,8.86,8.81a2.181,2.181,0,0,0,1.24,0c2.41-.82,7.28-3.81,8.86-8.81A10.679,10.679,0,0,0,22,8.692,5.574,5.574,0,0,0,16.44,3.1Z" transform="translate(-2 -2.002)" fill="#e63946"/>
  </g>
</svg>
