<svg xmlns="http://www.w3.org/2000/svg" xmlns:xlink="http://www.w3.org/1999/xlink" width="24" height="24" viewBox="0 0 24 24">
  <defs>
    <clipPath id="clip-path">
      <rect id="Rectangle_18226" data-name="Rectangle 18226" width="24" height="24" transform="translate(-349 330.5)" fill="#fff" stroke="#707070" stroke-width="1"/>
    </clipPath>
  </defs>
  <g id="Mask_Group_122" data-name="Mask Group 122" transform="translate(349 -330.5)" clip-path="url(#clip-path)">
    <g id="candidates" transform="translate(-349.362 330.138)">
      <path id="Path_6924" data-name="Path 6924" d="M8.537,13.031a1.1,1.1,0,0,1-1.1-1.1v-.889A2.924,2.924,0,0,1,9.813,8.17l1.469-.28h2.157l1.471.28a2.924,2.924,0,0,1,2.378,2.872v.889a1.1,1.1,0,0,1-1.1,1.1Z" fill="#f66"/>
      <path id="Path_6925" data-name="Path 6925" d="M14.91,8.17l-1.471-.28H11.99l1.469.28a2.924,2.924,0,0,1,2.379,2.872v.889a1.1,1.1,0,0,1-1.1,1.1h1.449a1.1,1.1,0,0,0,1.1-1.1v-.889A2.924,2.924,0,0,0,14.91,8.17Z" fill="#ff4e4e"/>
      <path id="Path_6926" data-name="Path 6926" d="M11.283,7.418v.894a1.079,1.079,0,0,0,1.079,1.079h0a1.079,1.079,0,0,0,1.079-1.079v-.9" fill="#ffcd85"/>
      <path id="Path_6927" data-name="Path 6927" d="M12.444,7.416v.9a1.079,1.079,0,0,1-.579.957,1.078,1.078,0,0,0,1.577-.957v-.9Z" fill="#ffc166"/>
      <path id="Path_6928" data-name="Path 6928" d="M14.942,3.313V1.3a.927.927,0,0,0-.819-.935H9.783V1.676a.821.821,0,0,0,.819.819" fill="#595f74"/>
      <path id="Path_6929" data-name="Path 6929" d="M14.123.362H12.675a.926.926,0,0,1,.819.935V3.039l1.449.273V1.3A.927.927,0,0,0,14.123.362Z" fill="#4a4f60"/>
      <path id="Path_6930" data-name="Path 6930" d="M12.362,2.494h0a2.58,2.58,0,0,1,2.58,2.58V7.251a.4.4,0,0,1-.4.4H10.185a.4.4,0,0,1-.4-.4V5.074a2.58,2.58,0,0,1,2.58-2.58Z" transform="translate(24.724 10.148) rotate(180)" fill="#ffcd85"/>
      <path id="Path_6931" data-name="Path 6931" d="M14.539,2.494H13.09a.4.4,0,0,1,.4.4V5.074A2.58,2.58,0,0,1,11.638,7.55a2.58,2.58,0,0,0,.724.1h0a2.58,2.58,0,0,0,2.58-2.58V2.9a.4.4,0,0,0-.4-.4Z" fill="#ffc166"/>
      <circle id="Ellipse_40" data-name="Ellipse 40" cx="1.677" cy="1.677" r="1.677" transform="translate(16.983 9.124)" fill="#595f74"/>
      <path id="Path_6932" data-name="Path 6932" d="M12.362,21.942A3.231,3.231,0,0,1,14.654,20.2l1.624-.309H18.66l1.625.31a3.232,3.232,0,0,1,2.628,3.176v.981H11.936Z" fill="#66c1ff"/>
      <path id="Path_6933" data-name="Path 6933" d="M20.286,20.2,18.66,19.9H17.211l1.624.31a3.232,3.232,0,0,1,2.628,3.176v.982h1.449v-.983A3.232,3.232,0,0,0,20.285,20.2Z" fill="#4eb7ff"/>
      <path id="Path_6934" data-name="Path 6934" d="M16.277,19.371v.989a1.192,1.192,0,0,0,1.192,1.192h0a1.192,1.192,0,0,0,1.193-1.192v-.992" fill="#ffcd85"/>
      <path id="Path_6935" data-name="Path 6935" d="M17.469,19.37v.99a1.192,1.192,0,0,1-.6,1.032,1.186,1.186,0,0,0,.6.16h0a1.192,1.192,0,0,0,1.193-1.192v-.992Z" fill="#ffc166"/>
      <path id="Path_6936" data-name="Path 6936" d="M20.321,14.834v-.41a2.849,2.849,0,0,0-2.852-2.852h0a2.849,2.849,0,0,0-2.852,2.852V15.2Z" fill="#676e87"/>
      <path id="Path_6937" data-name="Path 6937" d="M17.469,11.572h0a2.866,2.866,0,0,0-.724.093,2.853,2.853,0,0,1,2.128,2.759v.41l-4.255.271V15.2l5.7-.364v-.41a2.849,2.849,0,0,0-2.852-2.852Z" fill="#595f74"/>
      <path id="Path_6938" data-name="Path 6938" d="M17.469,19.632h0a2.852,2.852,0,0,0,2.852-2.852V14.654a1.909,1.909,0,0,1-1.613.089,1.791,1.791,0,0,1-.805-.724,2.954,2.954,0,0,1-1.311.778,3,3,0,0,1-1.974-.145v2.13a2.852,2.852,0,0,0,2.852,2.852Z" fill="#ffcd85"/>
      <path id="Path_6939" data-name="Path 6939" d="M18.873,14.8v1.976a2.852,2.852,0,0,1-2.127,2.758,2.845,2.845,0,0,0,.724.093h0a2.852,2.852,0,0,0,2.852-2.852V14.654A1.951,1.951,0,0,1,18.873,14.8Z" fill="#ffc166"/>
      <path id="Path_6940" data-name="Path 6940" d="M1.811,24.362v-.983A3.232,3.232,0,0,1,4.439,20.2L6.062,19.9H8.445l1.626.31A3.232,3.232,0,0,1,12.7,23.379v.983" fill="#63ea86"/>
      <path id="Path_6941" data-name="Path 6941" d="M10.071,20.2,8.445,19.9H7l1.624.31a3.232,3.232,0,0,1,2.63,3.174v.983H12.7v-.983A3.232,3.232,0,0,0,10.071,20.2Z" fill="#3ce568"/>
      <path id="Path_6942" data-name="Path 6942" d="M6.062,19.371v.989a1.192,1.192,0,0,0,1.193,1.192h0A1.192,1.192,0,0,0,8.447,20.36v-.992" fill="#ffcd85"/>
      <path id="Path_6943" data-name="Path 6943" d="M7.437,19.369v.991a1.192,1.192,0,0,1-.687,1.08,1.187,1.187,0,0,0,.505.112h0A1.192,1.192,0,0,0,8.447,20.36v-.992Z" fill="#ffc166"/>
      <path id="Path_6944" data-name="Path 6944" d="M10.107,14.834V12.606a1.024,1.024,0,0,0-.9-1.034H4.4v1.452a.9.9,0,0,0,.9.9" fill="#676e87"/>
      <path id="Path_6945" data-name="Path 6945" d="M9.2,11.572H7.753a1.024,1.024,0,0,1,.9,1.034V14.56l1.449.273V12.606A1.024,1.024,0,0,0,9.2,11.572Z" fill="#595f74"/>
      <path id="Path_6946" data-name="Path 6946" d="M7.255,13.929h0a2.852,2.852,0,0,1,2.852,2.852v2.407a.445.445,0,0,1-.445.445H4.848a.445.445,0,0,1-.445-.445V16.781a2.852,2.852,0,0,1,2.852-2.852Z" transform="translate(14.51 33.561) rotate(180)" fill="#ffcd85"/>
      <path id="Path_6947" data-name="Path 6947" d="M9.661,13.929H8.213a.445.445,0,0,1,.445.445v2.407a2.853,2.853,0,0,1-2.125,2.758,2.842,2.842,0,0,0,.725.093h0a2.852,2.852,0,0,0,2.849-2.852V14.374A.445.445,0,0,0,9.661,13.929Z" fill="#ffc166"/>
    </g>
  </g>
</svg>
