<svg xmlns="http://www.w3.org/2000/svg" xmlns:xlink="http://www.w3.org/1999/xlink" width="24" height="24" viewBox="0 0 24 24">
  <defs>
    <clipPath id="clip-path">
      <rect id="Rectangle_175" data-name="Rectangle 175" width="24" height="24" transform="translate(99 230)" fill="#fff" stroke="#707070" stroke-width="1"/>
    </clipPath>
  </defs>
  <g id="Mask_Group_13" data-name="Mask Group 13" transform="translate(-99 -230)" clip-path="url(#clip-path)">
    <g id="dashboard-2" transform="translate(99 229.999)">
      <g id="Group_79" data-name="Group 79">
        <circle id="Ellipse_18" data-name="Ellipse 18" cx="4.884" cy="4.884" r="4.884" transform="translate(0 11.292)" fill="#eef0ee"/>
        <path id="Path_275" data-name="Path 275" d="M5.348,16.177a.464.464,0,1,1-.464-.464A.462.462,0,0,1,5.348,16.177Z" fill="#eef0ee"/>
        <path id="Path_276" data-name="Path 276" d="M6.923,17.939v.9a.272.272,0,0,1-.272.272H3.113a.272.272,0,0,1-.272-.272v-.9a.272.272,0,0,1,.272-.272H6.652A.272.272,0,0,1,6.923,17.939Z" fill="#f8664f"/>
        <path id="Path_277" data-name="Path 277" d="M4.88,15.544a.535.535,0,0,0-.155.023L4.05,14.4a.171.171,0,1,0-.3.173l.675,1.172a.627.627,0,1,0,.45-.2Zm0,.923a.293.293,0,1,1,.3-.3A.293.293,0,0,1,4.88,16.467Z"/>
        <path id="Path_278" data-name="Path 278" d="M5.967,12.722a3.7,3.7,0,0,0-.914-.164v.6a.169.169,0,0,1-.338,0v-.609a3.631,3.631,0,0,0-1.491.4l.3.525a.171.171,0,0,1-.3.173l-.3-.525a3.676,3.676,0,0,0-1.092,1.092l.525.3a.171.171,0,1,1-.173.3l-.525-.3A3.56,3.56,0,0,0,1.266,16h.609a.169.169,0,1,1,0,.337H1.088a.168.168,0,0,1-.169-.169,3.952,3.952,0,0,1,5-3.82C5.93,12.478,5.948,12.6,5.967,12.722Z"/>
      </g>
      <g id="Group_80" data-name="Group 80">
        <circle id="Ellipse_19" data-name="Ellipse 19" cx="4.884" cy="4.884" r="4.884" transform="translate(14.231 11.292)" fill="#dbdddb"/>
        <path id="Path_279" data-name="Path 279" d="M18.652,16.177a.464.464,0,1,0,.464-.464A.462.462,0,0,0,18.652,16.177Z" fill="#eef0ee"/>
        <path id="Path_280" data-name="Path 280" d="M17.077,17.939v.9a.272.272,0,0,0,.272.272h3.539a.272.272,0,0,0,.272-.272v-.9a.272.272,0,0,0-.272-.272H17.348A.272.272,0,0,0,17.077,17.939Z" fill="#f8664f"/>
        <path id="Path_281" data-name="Path 281" d="M23.428,20.058c-.1.117-.211.225-.323.333a.169.169,0,0,0,.23.248c.117-.112.234-.23.347-.352a.17.17,0,0,0-.014-.239A.166.166,0,0,0,23.428,20.058Z"/>
        <path id="Path_282" data-name="Path 282" d="M22.434,20.934A5.792,5.792,0,0,1,20.1,21.9a.171.171,0,0,0-.141.2.174.174,0,0,0,.2.141,5.985,5.985,0,0,0,2.475-1.017.176.176,0,0,0,.042-.239A.171.171,0,0,0,22.434,20.934Z"/>
        <path id="Path_283" data-name="Path 283" d="M23.081,16.177a.17.17,0,0,1-.052.122.182.182,0,0,1-.122.052h-.783a.169.169,0,0,1,0-.337h.609a3.631,3.631,0,0,0-.4-1.491l-.525.3a.171.171,0,1,1-.173-.3l.525-.3a3.676,3.676,0,0,0-1.092-1.092l-.3.525a.171.171,0,1,1-.3-.173l.3-.525a3.56,3.56,0,0,0-1.491-.4v.609a.169.169,0,1,1-.337,0v-.6a3.462,3.462,0,0,0-.914.164c.019-.122.037-.244.052-.37a3.952,3.952,0,0,1,5,3.816Z"/>
        <path id="Path_284" data-name="Path 284" d="M20.184,14.33a.174.174,0,0,0-.234.061l-.675,1.172a.589.589,0,0,0-.155-.023.633.633,0,1,0,.633.633.62.62,0,0,0-.183-.441l.675-1.172A.168.168,0,0,0,20.184,14.33Zm-1.069,2.137a.293.293,0,1,1,.291-.3A.287.287,0,0,1,19.116,16.467Z"/>
      </g>
      <path id="Path_285" data-name="Path 285" d="M19.191,8.958A7.189,7.189,0,0,1,12,16.148a6.848,6.848,0,0,1-.937-.061,7.191,7.191,0,1,1,8.128-7.13Z" fill="#65c5ef"/>
      <path id="Path_286" data-name="Path 286" d="M19.191,8.958a7.13,7.13,0,0,1-.492,2.616,7.213,7.213,0,0,1-2.883,3.478,7.211,7.211,0,0,0,2.063-2.878A7.193,7.193,0,0,0,7.359,3.464,7.192,7.192,0,0,1,19.191,8.958Z" opacity="0.1"/>
      <path id="Path_287" data-name="Path 287" d="M12.7,8.128a.82.82,0,1,1-1.083-.3.571.571,0,0,0,.234-.248l1.35-2.7L12.637,7.72A.54.54,0,0,0,12.7,8.128Z" fill="#ffce00"/>
      <path id="Path_288" data-name="Path 288" d="M18.7,11.573A7.194,7.194,0,0,1,12,16.148a6.848,6.848,0,0,1-.937-.061v-3.4a1.115,1.115,0,0,1,1.116-1.116Z" fill="#eef0ee"/>
      <path id="Path_289" data-name="Path 289" d="M15.717,10.631H14.611a.173.173,0,1,1,0-.347h1.106a.173.173,0,1,1,0,.347Zm1.373,0h-.473a.173.173,0,1,1,0-.347h.473a.173.173,0,0,1,.173.173A.176.176,0,0,1,17.091,10.631Z" fill="#fff"/>
      <path id="Path_290" data-name="Path 290" d="M4.6,5.672a.166.166,0,0,0,.225-.08c.07-.15.15-.309.239-.464a.161.161,0,0,0-.07-.23.159.159,0,0,0-.23.07c-.089.159-.173.323-.244.478A.169.169,0,0,0,4.6,5.672Z"/>
      <path id="Path_291" data-name="Path 291" d="M5.564,4.331A7.854,7.854,0,0,1,7.345,2.545a.171.171,0,1,0-.2-.277A8.344,8.344,0,0,0,5.287,4.134a.172.172,0,0,0,.037.239A.176.176,0,0,0,5.564,4.331Z"/>
      <path id="Path_292" data-name="Path 292" d="M8.888,14.372a.17.17,0,0,0,.23-.066c.009-.014.567-.984.558-.97a.175.175,0,1,0-.3-.173l-.469.811a5.9,5.9,0,0,1-1.917-1.917l.811-.469a.175.175,0,0,0-.173-.3l-.811.469a5.853,5.853,0,0,1-.7-2.62h.938a.173.173,0,0,0,0-.347H6.1a5.847,5.847,0,0,1,.7-2.625l.82.473a.175.175,0,0,0,.173-.3L6.98,5.859A5.945,5.945,0,0,1,8.9,3.947l.469.811a.175.175,0,1,0,.3-.173l-.469-.816a5.886,5.886,0,0,1,2.62-.7v.942a.173.173,0,0,0,.347,0V3.066a5.864,5.864,0,0,1,2.62.7l-.469.816a.175.175,0,1,0,.3.173l.469-.816a5.9,5.9,0,0,1,1.917,1.917l-.816.469a.175.175,0,0,0,.173.3l.816-.469c.089.164.169.328.244.5a5.924,5.924,0,0,1,.459,2.119H16.95a.173.173,0,0,0,0,.347h1.12a.173.173,0,0,0,.173-.173h0a6.171,6.171,0,0,0-.492-2.428A6.133,6.133,0,0,0,12,2.709,6.127,6.127,0,0,0,5.752,8.958h0A6.248,6.248,0,0,0,8.888,14.372Z"/>
      <path id="Path_293" data-name="Path 293" d="M15.656,12.328H12.389a.173.173,0,0,0-.173.173.176.176,0,0,0,.173.173h3.267a.173.173,0,0,0,0-.347Z"/>
      <path id="Path_294" data-name="Path 294" d="M14.18,13.364h-1.8a.173.173,0,1,0,0,.347h1.8a.173.173,0,0,0,.173-.173A.17.17,0,0,0,14.18,13.364Z"/>
    </g>
  </g>
</svg>
