<svg xmlns="http://www.w3.org/2000/svg" xmlns:xlink="http://www.w3.org/1999/xlink" width="14" height="14" viewBox="0 0 14 14">
  <defs>
    <clipPath id="clip-path">
      <rect id="Rectangle_18461" data-name="Rectangle 18461" width="14" height="14" fill="#0d47a1" stroke="#707070" stroke-width="1"/>
    </clipPath>
  </defs>
  <g id="Mask_Group_306" data-name="Mask Group 306" clip-path="url(#clip-path)">
    <g id="calendar" transform="translate(0.927 0)">
      <path id="Path_41983" data-name="Path 41983" d="M11.3,2.4V1.349a.506.506,0,0,0-1.012,0V2.361H5.9V1.349a.506.506,0,0,0-1.012,0V2.4A2.866,2.866,0,0,0,2.051,5.269a.339.339,0,0,0,.337.358H13.8a.335.335,0,0,0,.337-.358A2.866,2.866,0,0,0,11.3,2.4Z" transform="translate(-2.024 -0.843)" fill="#0d47a1"/>
      <path id="Path_41984" data-name="Path 41984" d="M13.494,6.639H2.7a.677.677,0,0,0-.675.675V11.47A3.026,3.026,0,0,0,5.4,14.843h5.4a3.026,3.026,0,0,0,3.374-3.374V7.314A.677.677,0,0,0,13.494,6.639Zm-7.28,5.647a1.063,1.063,0,0,1-.1.081.511.511,0,0,1-.121.061.429.429,0,0,1-.121.04.914.914,0,0,1-.135.013.672.672,0,0,1-.256-.054.7.7,0,0,1-.223-.142.684.684,0,0,1,0-.958.7.7,0,0,1,.223-.142.645.645,0,0,1,.391-.04.429.429,0,0,1,.121.04.511.511,0,0,1,.121.061l.1.081a.684.684,0,0,1,0,.958Zm0-2.361a.677.677,0,0,1-.958-.958.674.674,0,0,1,.735-.142.63.63,0,0,1,.223.142.684.684,0,0,1,0,.958Zm2.361,2.361a.684.684,0,1,1,.2-.479A.709.709,0,0,1,8.576,12.286Zm0-2.361-.1.081a.511.511,0,0,1-.121.061.429.429,0,0,1-.121.04.914.914,0,0,1-.135.013.677.677,0,0,1-.479-1.154.63.63,0,0,1,.223-.142.674.674,0,0,1,.735.142.684.684,0,0,1,0,.958Zm2.361,2.361a.684.684,0,1,1,.2-.479A.709.709,0,0,1,10.937,12.286Zm0-2.361-.1.081a.511.511,0,0,1-.121.061.429.429,0,0,1-.121.04,1.014,1.014,0,0,1-.135.013.677.677,0,0,1-.479-1.154.7.7,0,0,1,.223-.142.645.645,0,0,1,.391-.04.429.429,0,0,1,.121.04.511.511,0,0,1,.121.061l.1.081a.684.684,0,0,1,0,.958Z" transform="translate(-2.024 -0.843)" fill="#0d47a1"/>
    </g>
  </g>
</svg>
