<svg xmlns="http://www.w3.org/2000/svg" xmlns:xlink="http://www.w3.org/1999/xlink" width="16" height="16" viewBox="0 0 16 16">
  <defs>
    <clipPath id="clip-path">
      <rect id="Rectangle_666" data-name="Rectangle 666" width="16" height="16" fill="#333" stroke="#707070" stroke-width="1"/>
    </clipPath>
  </defs>
  <g id="Mask_Group_20" data-name="Mask Group 20" clip-path="url(#clip-path)">
    <g id="firstline" transform="translate(0 1.026)">
      <path id="Path_6097" data-name="Path 6097" d="M17.231,4.308H11.487a.615.615,0,1,1,0-1.231h5.744a.615.615,0,0,1,0,1.231Z" transform="translate(-1.846 -2.667)" fill="#333"/>
      <path id="Path_6098" data-name="Path 6098" d="M17.231,8.41H11.487a.615.615,0,1,1,0-1.231h5.744a.615.615,0,0,1,0,1.231Z" transform="translate(-1.846 -2.667)" fill="#333"/>
      <path id="Path_6099" data-name="Path 6099" d="M17.231,12.513H2.462a.615.615,0,1,1,0-1.231H17.231a.615.615,0,0,1,0,1.231Z" transform="translate(-1.846 -2.667)" fill="#333"/>
      <path id="Path_6100" data-name="Path 6100" d="M17.231,16.615H2.462a.615.615,0,1,1,0-1.231H17.231a.615.615,0,0,1,0,1.231Z" transform="translate(-1.846 -2.667)" fill="#333"/>
      <path id="Path_6101" data-name="Path 6101" d="M6.5,8.821H4.168A1.7,1.7,0,0,1,2.256,6.909V4.578A1.7,1.7,0,0,1,4.168,2.667H6.507A1.7,1.7,0,0,1,8.418,4.578V6.917A1.7,1.7,0,0,1,6.5,8.821ZM4.168,3.9c-.583,0-.681.1-.681.681V6.917c0,.583.1.681.681.681H6.507c.583,0,.681-.1.681-.681V4.578c0-.583-.1-.681-.681-.681Z" transform="translate(-1.846 -2.667)" fill="#333"/>
    </g>
  </g>
</svg>
