<svg xmlns="http://www.w3.org/2000/svg" xmlns:xlink="http://www.w3.org/1999/xlink" width="16" height="16" viewBox="0 0 16 16">
  <defs>
    <clipPath id="clip-path">
      <rect id="Rectangle_664" data-name="Rectangle 664" width="16" height="16" fill="#333" stroke="#707070" stroke-width="1"/>
    </clipPath>
  </defs>
  <g id="Mask_Group_19" data-name="Mask Group 19" clip-path="url(#clip-path)">
    <g id="edit-2" transform="translate(0.684 0)">
      <path id="Path_6094" data-name="Path 6094" d="M4.157,14.647a1.719,1.719,0,0,1-1.193-.45,1.787,1.787,0,0,1-.51-1.523l.278-2.431a2.7,2.7,0,0,1,.653-1.4l6.16-6.52C11.082.7,12.688.653,14.316,2.191s1.673,3.144.135,4.772l-6.16,6.52a2.705,2.705,0,0,1-1.358.728l-2.416.413C4.389,14.632,4.277,14.647,4.157,14.647Zm7.8-12.463a2.292,2.292,0,0,0-1.591.9L4.2,9.612a1.733,1.733,0,0,0-.353.75l-.278,2.431a.659.659,0,0,0,.165.578.676.676,0,0,0,.585.135l2.416-.413a1.677,1.677,0,0,0,.728-.39l6.16-6.52c.93-.99,1.268-1.906-.09-3.181A2.373,2.373,0,0,0,11.953,2.184Z" transform="translate(-1.688 -1.07)" fill="#333"/>
      <path id="Path_6095" data-name="Path 6095" d="M13.011,8.216h-.053A5.147,5.147,0,0,1,8.374,3.879a.566.566,0,1,1,1.118-.173A4.031,4.031,0,0,0,13.079,7.1a.563.563,0,0,1,.5.615A.581.581,0,0,1,13.011,8.216Z" transform="translate(-1.688 -1.07)" fill="#333"/>
      <path id="Path_6096" data-name="Path 6096" d="M15.757,17.07H2.251a.563.563,0,0,1,0-1.126H15.757a.563.563,0,0,1,0,1.126Z" transform="translate(-1.688 -1.07)" fill="#333"/>
    </g>
  </g>
</svg>
