<svg xmlns="http://www.w3.org/2000/svg" xmlns:xlink="http://www.w3.org/1999/xlink" width="24" height="24" viewBox="0 0 24 24">
  <defs>
    <clipPath id="clip-path">
      <rect id="Rectangle_18228" data-name="Rectangle 18228" width="24" height="24" transform="translate(-345 446.5)" fill="#fff" stroke="#707070" stroke-width="1"/>
    </clipPath>
  </defs>
  <g id="Mask_Group_124" data-name="Mask Group 124" transform="translate(345 -446.5)" clip-path="url(#clip-path)">
    <g id="time-management" transform="translate(-345.19 446.31)">
      <path id="Path_6972" data-name="Path 6972" d="M18.452,4.4V18.31a.744.744,0,0,1-.743.743H.933A.744.744,0,0,1,.19,18.31V4.4a.744.744,0,0,1,.743-.743H17.7A.745.745,0,0,1,18.452,4.4Z" fill="#dbdddb"/>
      <path id="Path_6973" data-name="Path 6973" d="M18.452,6.876V4.4a.744.744,0,0,0-.743-.743H.933A.744.744,0,0,0,.19,4.4V6.876Z" fill="#65c5ef"/>
      <rect id="Rectangle_18229" data-name="Rectangle 18229" width="18.262" height="0.767" transform="translate(0.19 6.11)" opacity="0.1"/>
      <path id="Path_6974" data-name="Path 6974" d="M4.481,12.219v1.49a.413.413,0,0,1-.41.41H1.7a.409.409,0,0,1-.41-.41v-1.49a.406.406,0,0,1,.41-.41H4.067A.411.411,0,0,1,4.481,12.219Z" fill="#eef0ee"/>
      <path id="Path_6975" data-name="Path 6975" d="M4.481,15.8v1.49a.409.409,0,0,1-.41.41H1.7a.409.409,0,0,1-.41-.41V15.8a.406.406,0,0,1,.41-.41H4.067A.408.408,0,0,1,4.481,15.8Zm4.29-7.162v1.49a.413.413,0,0,1-.41.41H6a.409.409,0,0,1-.41-.41V8.638A.409.409,0,0,1,6,8.229H8.362A.409.409,0,0,1,8.771,8.638Z" fill="#f8664f"/>
      <path id="Path_6976" data-name="Path 6976" d="M8.771,12.219v1.49a.413.413,0,0,1-.41.41H6a.409.409,0,0,1-.41-.41v-1.49A.409.409,0,0,1,6,11.81H8.362A.409.409,0,0,1,8.771,12.219Zm0,3.581v1.49a.409.409,0,0,1-.41.41H6a.409.409,0,0,1-.41-.41V15.8A.409.409,0,0,1,6,15.39H8.362A.406.406,0,0,1,8.771,15.8Zm4.29-7.162v1.49a.409.409,0,0,1-.41.41H10.286a.409.409,0,0,1-.41-.41V8.638a.409.409,0,0,1,.41-.41h2.367A.409.409,0,0,1,13.062,8.638Zm0,3.581v1.49a.409.409,0,0,1-.41.41H10.286a.409.409,0,0,1-.41-.41v-1.49a.409.409,0,0,1,.41-.41h2.367A.409.409,0,0,1,13.062,12.219Zm0,3.581v1.49a.406.406,0,0,1-.41.41H10.286a.409.409,0,0,1-.41-.41V15.8a.409.409,0,0,1,.41-.41h2.367A.406.406,0,0,1,13.062,15.8Zm4.29-7.162v1.49a.413.413,0,0,1-.41.41H14.571a.409.409,0,0,1-.41-.41V8.638a.409.409,0,0,1,.41-.41h2.367A.411.411,0,0,1,17.352,8.638Zm0,3.581v1.49a.413.413,0,0,1-.41.41H14.571a.409.409,0,0,1-.41-.41v-1.49a.409.409,0,0,1,.41-.41h2.367A.411.411,0,0,1,17.352,12.219Z" fill="#eef0ee"/>
      <circle id="Ellipse_41" data-name="Ellipse 41" cx="4.948" cy="4.948" r="4.948" transform="translate(14.295 12.533)" fill="#65c5ef"/>
      <path id="Path_6977" data-name="Path 6977" d="M21.119,19.51a.2.2,0,0,1-.133-.052L19.11,17.619a.191.191,0,0,1-.057-.138V15.214a.19.19,0,1,1,.381,0V17.4l1.819,1.781a.194.194,0,0,1,0,.271A.2.2,0,0,1,21.119,19.51Z"/>
      <circle id="Ellipse_42" data-name="Ellipse 42" cx="0.586" cy="0.586" r="0.586" transform="translate(18.657 16.895)" fill="#fff"/>
      <path id="Path_6978" data-name="Path 6978" d="M19.829,17.481a.585.585,0,0,1-.586.586A.578.578,0,0,1,18.7,17.7a.57.57,0,0,0,.224.048.585.585,0,0,0,.586-.586.5.5,0,0,0-.048-.224A.578.578,0,0,1,19.829,17.481Z" fill="#ededed"/>
      <path id="Path_6979" data-name="Path 6979" d="M19.243,18.262a.776.776,0,1,1,.776-.776A.776.776,0,0,1,19.243,18.262Zm0-1.176a.4.4,0,1,0,.4.4A.394.394,0,0,0,19.243,17.086Zm0-2.943a.191.191,0,0,1-.19-.19v-.419a.19.19,0,0,1,.381,0v.419A.191.191,0,0,1,19.243,14.143Zm0,7.481a.191.191,0,0,1-.19-.19v-.419a.19.19,0,0,1,.381,0v.419A.191.191,0,0,1,19.243,21.624Zm2.5-6.448a.193.193,0,0,1-.133-.329l.3-.3a.192.192,0,0,1,.271.271l-.3.3A.208.208,0,0,1,21.743,15.176Zm-5.3,5.29a.193.193,0,0,1-.133-.329l.3-.3a.192.192,0,1,1,.271.271l-.3.3A.191.191,0,0,1,16.448,20.467Zm6.748-2.8h-.419a.19.19,0,1,1,0-.381H23.2a.19.19,0,1,1,0,.381Zm-7.486,0H15.29a.19.19,0,1,1,0-.381h.419a.19.19,0,0,1,0,.381Zm6.329,2.8a.188.188,0,0,1-.133-.057l-.3-.3a.192.192,0,1,1,.271-.271l.3.3a.19.19,0,0,1,0,.271A.208.208,0,0,1,22.038,20.467Zm-5.29-5.29a.188.188,0,0,1-.133-.057l-.3-.3a.192.192,0,1,1,.271-.271l.3.3a.19.19,0,0,1,0,.271A.208.208,0,0,1,16.748,15.176Z"/>
      <g id="Group_43865" data-name="Group 43865">
        <path id="Path_6980" data-name="Path 6980" d="M4.314,2.657v2.31a.707.707,0,0,1-1.414,0v-2.3a.707.707,0,0,1,.71-.7.686.686,0,0,1,.5.21A.7.7,0,0,1,4.314,2.657Zm5.538,0v2.31a.707.707,0,0,1-1.414,0v-2.3a.707.707,0,0,1,.71-.7.686.686,0,0,1,.5.21A.7.7,0,0,1,9.852,2.657Zm5.538,0v2.31a.707.707,0,0,1-1.414,0v-2.3a.707.707,0,0,1,.71-.7.686.686,0,0,1,.5.21A.7.7,0,0,1,15.39,2.657Z" fill="#ffce00"/>
      </g>
    </g>
  </g>
</svg>
