<svg id="Group_48364" data-name="Group 48364" xmlns="http://www.w3.org/2000/svg" width="462.386" height="100" viewBox="0 0 462.386 100">
  <g id="Group_48366" data-name="Group 48366">
    <path id="Path_42087" data-name="Path 42087" d="M52.247,31.987H7.225a1.187,1.187,0,0,0-1.187,1.188L6.049,41.1a4.8,4.8,0,0,0,4.8,4.789h28.59A1.187,1.187,0,0,1,40.6,47.294l-.251,1.33a1.722,1.722,0,0,1-1.693,1.4H8.852a6.163,6.163,0,0,0-6.12,5.432L.03,78.111a4.145,4.145,0,0,0,4.116,4.637H44.419a7.307,7.307,0,0,0,7.249-6.392l4.969-39.39a4.425,4.425,0,0,0-4.39-4.979M38.328,66.075a2.108,2.108,0,0,1-2.109,2.108H15.72V66.192a2.108,2.108,0,0,1,2.109-2.108h20.5Z" transform="translate(0 -10.754)" fill="#c5e7ff"/>
    <path id="Path_42088" data-name="Path 42088" d="M139.94,0a6.453,6.453,0,0,0-6.392,5.566l-2.173,15.667h-31.01A7.408,7.408,0,0,0,93,27.81l-4.4,38.983a4.676,4.676,0,0,0,4.646,5.2h39.192a7.039,7.039,0,0,0,6.972-6.072L148.554,0ZM125.974,55.4A2.406,2.406,0,0,1,123.6,57.43H103.726l2.82-20.341a2.406,2.406,0,0,1,2.384-2.076h20.319Z" transform="translate(-29.78)" fill="#c5e7ff"/>
    <path id="Path_42089" data-name="Path 42089" d="M229.291,0A6.453,6.453,0,0,0,222.9,5.566l-2.173,15.667h-31.01a7.408,7.408,0,0,0-7.361,6.578l-4.4,38.983a4.676,4.676,0,0,0,4.646,5.2H221.8a7.039,7.039,0,0,0,6.972-6.072L237.905,0ZM215.325,55.4a2.406,2.406,0,0,1-2.376,2.025H193.077l2.82-20.341a2.406,2.406,0,0,1,2.384-2.076H218.6Z" transform="translate(-59.82)" fill="#c5e7ff"/>
    <path id="Path_42090" data-name="Path 42090" d="M315.864,103.981a6.453,6.453,0,0,0,6.392-5.566l2.173-15.667h31.011a7.408,7.408,0,0,0,7.361-6.578l5.042-39.445a4.205,4.205,0,0,0-4.171-4.738H323.359a7.039,7.039,0,0,0-6.972,6.072l-9.138,65.922Zm13.966-55.4a2.406,2.406,0,0,1,2.376-2.025h19.873l-2.82,20.341a2.407,2.407,0,0,1-2.384,2.076H326.555Z" transform="translate(-103.299 -10.754)" fill="#c5e7ff"/>
    <path id="Path_42091" data-name="Path 42091" d="M407.1,33.121l-5.717,43.718a5.231,5.231,0,0,0,5.186,5.908h38.188a8.323,8.323,0,0,0,8.277-7.457l4.686-39.064a3.789,3.789,0,0,0-3.762-4.24h-8.983a1.3,1.3,0,0,0-1.294,1.144L439.4,67.983H417.313l3.9-31.747a3.788,3.788,0,0,0-3.76-4.25h-9.059a1.3,1.3,0,0,0-1.293,1.134" transform="translate(-134.93 -10.754)" fill="#c5e7ff"/>
    <path id="Path_42092" data-name="Path 42092" d="M489.094,71.994l9.061-65.258A7.81,7.81,0,0,1,505.891,0h7.881l-9.2,65.274a7.81,7.81,0,0,1-7.734,6.72Z" transform="translate(-164.436)" fill="#c5e7ff"/>
    <path id="Path_42093" data-name="Path 42093" d="M529.23,82.748h39.307a8.146,8.146,0,0,0,8.115-7.442l1.733-20A4.608,4.608,0,0,0,573.8,50.3H542.585V48.155a2.071,2.071,0,0,1,2.072-2.072H573.1a8.845,8.845,0,0,0,8.844-8.844v-3.18a2.072,2.072,0,0,0-2.072-2.072h-44.8A4.608,4.608,0,0,0,530.5,36l-3.016,23.154a4.607,4.607,0,0,0,4.569,5.2H563.2v1.555a2.071,2.071,0,0,1-2.071,2.071H526.695a2.072,2.072,0,0,0-2.072,2.072v8.085a4.608,4.608,0,0,0,4.607,4.607" transform="translate(-176.381 -10.754)" fill="#c5e7ff"/>
    <path id="Path_42094" data-name="Path 42094" d="M665.1,31.987H622.841a5.076,5.076,0,0,0-5.042,4.487l-5.342,40.754a4.885,4.885,0,0,0,4.843,5.52h45.545V73.767a5.076,5.076,0,0,0-5.076-5.076H627.547V66.27a2.108,2.108,0,0,1,2.108-2.108h31.1A5.076,5.076,0,0,0,665.8,59.6l2.465-24.108a3.183,3.183,0,0,0-3.166-3.506M653.014,48.016a2.109,2.109,0,0,1-2.108,2.109h-20.5V48.133a2.109,2.109,0,0,1,2.109-2.109h20.5Z" transform="translate(-205.897 -10.754)" fill="#c5e7ff"/>
    <path id="Path_42112" data-name="Path 42112" d="M678.31,37.763h-1.644l-.885,6.084h-1.5l.885-6.084h-1.645l.206-1.425h4.795Z" transform="translate(-226.441 -12.217)" fill="#525252"/>
    <path id="Path_42113" data-name="Path 42113" d="M688.71,36.339l-1.092,7.51h-1.526l.913-6.283-2.639,6.283h-.87l-.875-6.349-.923,6.349h-1.231l1.092-7.51h2.286l.581,4.593,1.914-4.593Z" transform="translate(-228.777 -12.217)" fill="#525252"/>
    <g id="Group_48367" data-name="Group 48367">
      <path id="Path_42095" data-name="Path 42095" d="M430.8,133.314h-1.93l-1.265,8.811h-2.864l1.28-8.811h-1.163l.273-2.589h1.265a5.881,5.881,0,0,1,1.32-3.577,4.026,4.026,0,0,1,2.947-1.02,6.857,6.857,0,0,1,1.218.112l-.166,2.635a5.306,5.306,0,0,0-.877-.079,1.625,1.625,0,0,0-1.072.348,2.375,2.375,0,0,0-.526,1.581h1.93Z" transform="translate(-142.799 -42.405)" fill="#ef1866"/>
      <path id="Path_42096" data-name="Path 42096" d="M439.764,132.63a3.833,3.833,0,0,1,3.126,1.474,5.946,5.946,0,0,1,1.194,3.862,7.528,7.528,0,0,1-1.448,4.653A4.384,4.384,0,0,1,439,144.546a3.893,3.893,0,0,1-3.111-1.457,5.508,5.508,0,0,1-1.229-3.677,7.992,7.992,0,0,1,1.414-4.854,4.371,4.371,0,0,1,3.687-1.928m-.013,2.208q-1.224,0-1.695,1.746a13.762,13.762,0,0,0-.471,3.593q0,2.161,1.489,2.16,1.215,0,1.665-1.9A15.034,15.034,0,0,0,441.19,137q0-2.161-1.44-2.161" transform="translate(-146.136 -44.591)" fill="#ef1866"/>
      <path id="Path_42097" data-name="Path 42097" d="M457.185,136.112a2.784,2.784,0,0,0-1.316.275,2.583,2.583,0,0,0-.951,1,5.393,5.393,0,0,0-.633,1.619q-.2.9-.471,2.9l-.358,2.467h-2.983l1.656-11.4h2.765l-.37,2.623a7.915,7.915,0,0,1,.875-1.777,2.257,2.257,0,0,1,.9-.807,3.085,3.085,0,0,1,1.19-.2Z" transform="translate(-151.451 -44.653)" fill="#ef1866"/>
      <path id="Path_42098" data-name="Path 42098" d="M479.893,144.322l.925-6.368a12.484,12.484,0,0,0,.146-1.3q0-1.333-1.051-1.334a1.477,1.477,0,0,0-1.143.611,6.316,6.316,0,0,0-.822,2.775l-.822,5.616h-2.767l.994-6.782a9.849,9.849,0,0,0,.118-1.043q0-1.233-1.012-1.233a1.32,1.32,0,0,0-.976.455,2.518,2.518,0,0,0-.607,1.116,24.272,24.272,0,0,0-.42,2.443l-.736,5.044h-2.865l1.656-11.4H473.1l-.283,1.962a4.628,4.628,0,0,1,1.437-1.821,2.774,2.774,0,0,1,1.426-.4q1.734,0,2.435,2.13a3.31,3.31,0,0,1,2.9-2.074,2.551,2.551,0,0,1,2.057.9,3.505,3.505,0,0,1,.76,2.337,17.387,17.387,0,0,1-.214,2.04l-.929,6.322Z" transform="translate(-157.632 -44.602)" fill="#ef1866"/>
      <path id="Path_42099" data-name="Path 42099" d="M498.954,132.63a3.833,3.833,0,0,1,3.126,1.474,5.946,5.946,0,0,1,1.194,3.862,7.528,7.528,0,0,1-1.448,4.653,4.384,4.384,0,0,1-3.634,1.928,3.893,3.893,0,0,1-3.111-1.457,5.508,5.508,0,0,1-1.229-3.677,7.992,7.992,0,0,1,1.414-4.854,4.371,4.371,0,0,1,3.687-1.928m-.013,2.208q-1.224,0-1.695,1.746a13.763,13.763,0,0,0-.471,3.593q0,2.161,1.489,2.16,1.215,0,1.665-1.9A15.036,15.036,0,0,0,500.38,137q0-2.161-1.44-2.161" transform="translate(-166.036 -44.591)" fill="#ef1866"/>
      <path id="Path_42100" data-name="Path 42100" d="M516.375,136.112a2.784,2.784,0,0,0-1.316.275,2.582,2.582,0,0,0-.951,1,5.392,5.392,0,0,0-.633,1.619q-.2.9-.471,2.9l-.358,2.467h-2.983l1.656-11.4h2.765l-.37,2.623a7.907,7.907,0,0,1,.875-1.777,2.257,2.257,0,0,1,.9-.807,3.085,3.085,0,0,1,1.19-.2Z" transform="translate(-171.351 -44.653)" fill="#ef1866"/>
      <path id="Path_42101" data-name="Path 42101" d="M529.972,139.194h-6.4c-.038.373-.058.654-.058.84A2.458,2.458,0,0,0,524,141.7a1.523,1.523,0,0,0,1.188.555q1.393,0,1.977-1.816l2.435.471a5.557,5.557,0,0,1-1.685,2.673,4.275,4.275,0,0,1-2.893,1.026,3.941,3.941,0,0,1-3.176-1.456,5.719,5.719,0,0,1-1.217-3.8,7.844,7.844,0,0,1,1.436-4.636,4.443,4.443,0,0,1,3.8-2.039,3.644,3.644,0,0,1,3.093,1.478,5.949,5.949,0,0,1,1.105,3.67,13.336,13.336,0,0,1-.1,1.366m-6.2-1.884h3.575a5.385,5.385,0,0,0,.049-.68,1.954,1.954,0,0,0-.443-1.373,1.4,1.4,0,0,0-1.067-.479q-1.637,0-2.114,2.533" transform="translate(-175.039 -44.608)" fill="#ef1866"/>
      <path id="Path_42102" data-name="Path 42102" d="M553.623,139.194h-6.4c-.038.373-.058.654-.058.84a2.458,2.458,0,0,0,.487,1.665,1.523,1.523,0,0,0,1.188.555q1.393,0,1.977-1.816l2.435.471a5.558,5.558,0,0,1-1.685,2.673,4.275,4.275,0,0,1-2.893,1.026,3.941,3.941,0,0,1-3.176-1.456,5.719,5.719,0,0,1-1.217-3.8,7.844,7.844,0,0,1,1.436-4.636,4.443,4.443,0,0,1,3.8-2.039,3.644,3.644,0,0,1,3.093,1.478,5.949,5.949,0,0,1,1.105,3.67,13.3,13.3,0,0,1-.1,1.366m-6.2-1.884H551a5.4,5.4,0,0,0,.049-.68,1.954,1.954,0,0,0-.443-1.373,1.4,1.4,0,0,0-1.067-.479q-1.637,0-2.114,2.533" transform="translate(-182.99 -44.608)" fill="#ef1866"/>
      <path id="Path_42103" data-name="Path 42103" d="M568.805,133.052l-3.754,5.441,2.361,5.96h-3.087l-1.448-4.031-2.528,4.031h-2.533l4.123-6.112-2.165-5.289h3.161l1.244,3.332,2.068-3.332Z" transform="translate(-187.541 -44.733)" fill="#ef1866"/>
      <path id="Path_42104" data-name="Path 42104" d="M583.054,140.321q-1.257,4.26-4.569,4.26a3.764,3.764,0,0,1-3.19-1.485,6.069,6.069,0,0,1-1.126-3.772,7.809,7.809,0,0,1,1.4-4.58,4.349,4.349,0,0,1,3.74-2.013,3.626,3.626,0,0,1,3.113,1.328,4.679,4.679,0,0,1,.988,2.842v.247l-2.572.179a2.364,2.364,0,0,0-.449-1.619,1.358,1.358,0,0,0-1.023-.489q-.965,0-1.534,1.284a8.354,8.354,0,0,0-.57,3.358q0,2.1,1.51,2.1,1.334,0,1.861-2.007Z" transform="translate(-193.039 -44.625)" fill="#ef1866"/>
      <path id="Path_42105" data-name="Path 42105" d="M593.81,130.975l-1.655,11.4h-2.983l1.655-11.4Zm.6-4.1-.47,3.24h-2.983l.471-3.24Z" transform="translate(-198.083 -42.655)" fill="#ef1866"/>
      <path id="Path_42106" data-name="Path 42106" d="M604.342,134.035h-2.353l-.669,4.574a8,8,0,0,0-.1.975q0,.92,1.286.919a5.031,5.031,0,0,0,1.032-.09l-.37,2.5a10.774,10.774,0,0,1-1.968.191q-2.952,0-2.952-2.757a17.413,17.413,0,0,1,.311-2.567l.663-3.744h-1.529l.38-2.612h1.657l.67-3.138,2.508-.078-.479,3.217h2.3Z" transform="translate(-200.946 -43.104)" fill="#ef1866"/>
      <path id="Path_42107" data-name="Path 42107" d="M617.953,139.194h-6.4c-.038.373-.058.654-.058.84a2.458,2.458,0,0,0,.487,1.665,1.523,1.523,0,0,0,1.188.555q1.393,0,1.977-1.816l2.435.471a5.558,5.558,0,0,1-1.685,2.673A4.275,4.275,0,0,1,613,144.608a3.941,3.941,0,0,1-3.176-1.456,5.719,5.719,0,0,1-1.217-3.8,7.844,7.844,0,0,1,1.436-4.636,4.443,4.443,0,0,1,3.8-2.039,3.644,3.644,0,0,1,3.093,1.478,5.949,5.949,0,0,1,1.105,3.67,13.318,13.318,0,0,1-.1,1.366m-6.2-1.884h3.575a5.4,5.4,0,0,0,.049-.68,1.954,1.954,0,0,0-.443-1.373,1.4,1.4,0,0,0-1.067-.479q-1.637,0-2.114,2.533" transform="translate(-204.618 -44.608)" fill="#ef1866"/>
      <path id="Path_42108" data-name="Path 42108" d="M635.385,144.322l.925-6.368a12.461,12.461,0,0,0,.146-1.3q0-1.333-1.051-1.334a1.477,1.477,0,0,0-1.143.611,6.317,6.317,0,0,0-.822,2.775l-.822,5.616h-2.767l.994-6.782a9.854,9.854,0,0,0,.117-1.043q0-1.233-1.012-1.233a1.32,1.32,0,0,0-.976.455,2.518,2.518,0,0,0-.607,1.116,24.284,24.284,0,0,0-.42,2.443l-.735,5.044h-2.865l1.656-11.4H628.6l-.283,1.962a4.628,4.628,0,0,1,1.437-1.821,2.774,2.774,0,0,1,1.427-.4q1.733,0,2.435,2.13a3.31,3.31,0,0,1,2.9-2.074,2.551,2.551,0,0,1,2.057.9,3.5,3.5,0,0,1,.76,2.337,17.376,17.376,0,0,1-.214,2.04l-.929,6.322Z" transform="translate(-209.909 -44.602)" fill="#ef1866"/>
      <path id="Path_42109" data-name="Path 42109" d="M658.555,139.194h-6.4c-.039.373-.058.654-.058.84a2.458,2.458,0,0,0,.487,1.665,1.523,1.523,0,0,0,1.188.555q1.393,0,1.977-1.816l2.435.471a5.558,5.558,0,0,1-1.685,2.673,4.274,4.274,0,0,1-2.893,1.026,3.941,3.941,0,0,1-3.176-1.456,5.719,5.719,0,0,1-1.217-3.8,7.844,7.844,0,0,1,1.436-4.636,4.442,4.442,0,0,1,3.8-2.039,3.644,3.644,0,0,1,3.093,1.478,5.95,5.95,0,0,1,1.105,3.67,13.322,13.322,0,0,1-.1,1.366m-6.2-1.884h3.575a5.385,5.385,0,0,0,.049-.68,1.954,1.954,0,0,0-.443-1.373,1.4,1.4,0,0,0-1.067-.479q-1.637,0-2.114,2.533" transform="translate(-218.269 -44.608)" fill="#ef1866"/>
      <path id="Path_42110" data-name="Path 42110" d="M669.292,132.949l-.315,2.163q1.083-2.365,2.976-2.366a2.385,2.385,0,0,1,1.908.87,3.29,3.29,0,0,1,.736,2.2,18.85,18.85,0,0,1-.224,2.12l-.939,6.412H670.58l.965-6.659a12.286,12.286,0,0,0,.145-1.256q0-1.2-1.023-1.2a1.424,1.424,0,0,0-.983.41,2.359,2.359,0,0,0-.653,1.053,13.6,13.6,0,0,0-.4,2.013l-.819,5.638h-2.864l1.656-11.4Z" transform="translate(-223.559 -44.63)" fill="#ef1866"/>
      <path id="Path_42111" data-name="Path 42111" d="M688.427,134.035h-2.353l-.669,4.574a8,8,0,0,0-.1.975q0,.92,1.286.919a5.032,5.032,0,0,0,1.032-.09l-.37,2.5a10.774,10.774,0,0,1-1.968.191q-2.952,0-2.952-2.757a17.413,17.413,0,0,1,.311-2.567l.662-3.744h-1.529l.38-2.612h1.658l.67-3.138,2.508-.078-.479,3.217h2.3Z" transform="translate(-229.216 -43.104)" fill="#ef1866"/>
      <rect id="Rectangle_18535" data-name="Rectangle 18535" width="462.385" height="100" fill="none"/>
    </g>
  </g>
</svg>
