<svg id="Group_48365" data-name="Group 48365" xmlns="http://www.w3.org/2000/svg" xmlns:xlink="http://www.w3.org/1999/xlink" width="277.431" height="60" viewBox="0 0 277.431 60">
  <defs>
    <clipPath id="clip-path">
      <rect id="Rectangle_18535" data-name="Rectangle 18535" width="277.431" height="60" fill="#fff"/>
    </clipPath>
  </defs>
  <g id="Group_48364" data-name="Group 48364" clip-path="url(#clip-path)">
    <path id="Path_42087" data-name="Path 42087" d="M31.349,31.987H4.335a.712.712,0,0,0-.712.713l.007,4.754a2.877,2.877,0,0,0,2.877,2.873H23.661a.712.712,0,0,1,.7.844l-.151.8a1.033,1.033,0,0,1-1.016.842H5.312A3.7,3.7,0,0,0,1.64,46.07L.018,59.662a2.487,2.487,0,0,0,2.469,2.782H26.652A4.384,4.384,0,0,0,31,58.608l2.982-23.634a2.655,2.655,0,0,0-2.634-2.987M23,52.44A1.265,1.265,0,0,1,21.732,53.7H9.432V52.51A1.265,1.265,0,0,1,10.7,51.245H23Z" transform="translate(0 -19.247)" fill="#0d47a1"/>
    <path id="Path_42088" data-name="Path 42088" d="M119.394,0a3.872,3.872,0,0,0-3.835,3.34l-1.3,9.4H95.649a4.445,4.445,0,0,0-4.417,3.947l-2.639,23.39a2.805,2.805,0,0,0,2.788,3.12H114.9a4.223,4.223,0,0,0,4.183-3.643L124.563,0Zm-8.379,33.243a1.444,1.444,0,0,1-1.425,1.215H97.666l1.692-12.2a1.444,1.444,0,0,1,1.43-1.245h12.191Z" transform="translate(-53.298)" fill="#0d47a1"/>
    <path id="Path_42089" data-name="Path 42089" d="M208.745,0a3.872,3.872,0,0,0-3.835,3.34l-1.3,9.4H185a4.445,4.445,0,0,0-4.417,3.947l-2.639,23.39a2.805,2.805,0,0,0,2.788,3.12h23.515a4.223,4.223,0,0,0,4.183-3.643L213.914,0Zm-8.379,33.243a1.444,1.444,0,0,1-1.425,1.215H187.017l1.692-12.2a1.444,1.444,0,0,1,1.43-1.245H202.33Z" transform="translate(-107.063)" fill="#0d47a1"/>
    <path id="Path_42090" data-name="Path 42090" d="M312.418,75.183a3.872,3.872,0,0,0,3.835-3.34l1.3-9.4h18.606A4.445,4.445,0,0,0,340.58,58.5L343.6,34.83a2.523,2.523,0,0,0-2.5-2.843H316.915a4.223,4.223,0,0,0-4.183,3.643l-5.483,39.553ZM320.8,41.941a1.444,1.444,0,0,1,1.425-1.215h11.924l-1.692,12.2a1.444,1.444,0,0,1-1.43,1.246H318.833Z" transform="translate(-184.879 -19.247)" fill="#0d47a1"/>
    <path id="Path_42091" data-name="Path 42091" d="M404.791,32.668,401.36,58.9a3.139,3.139,0,0,0,3.112,3.545h22.913a4.994,4.994,0,0,0,4.967-4.474l2.811-23.438a2.273,2.273,0,0,0-2.257-2.544h-5.39a.782.782,0,0,0-.777.687l-2.566,20.911H410.921l2.337-19.048A2.273,2.273,0,0,0,411,31.987h-5.436a.782.782,0,0,0-.776.681" transform="translate(-241.492 -19.247)" fill="#0d47a1"/>
    <path id="Path_42092" data-name="Path 42092" d="M489.094,43.2l5.436-39.155A4.686,4.686,0,0,1,499.172,0H503.9l-5.522,39.165a4.686,4.686,0,0,1-4.64,4.032Z" transform="translate(-294.299)" fill="#0d47a1"/>
    <path id="Path_42093" data-name="Path 42093" d="M527.387,62.444h23.584a4.887,4.887,0,0,0,4.869-4.465l1.04-12a2.765,2.765,0,0,0-2.754-3H535.4V41.688a1.243,1.243,0,0,1,1.243-1.243h17.066a5.307,5.307,0,0,0,5.307-5.307V33.23a1.243,1.243,0,0,0-1.243-1.243h-26.88a2.765,2.765,0,0,0-2.741,2.408l-1.81,13.893a2.764,2.764,0,0,0,2.741,3.122H547.77v.933a1.242,1.242,0,0,1-1.243,1.243H525.866a1.243,1.243,0,0,0-1.243,1.243v4.851a2.765,2.765,0,0,0,2.764,2.764" transform="translate(-315.678 -19.247)" fill="#0d47a1"/>
    <path id="Path_42094" data-name="Path 42094" d="M644.025,31.987H618.67a3.046,3.046,0,0,0-3.025,2.692L612.44,59.132a2.931,2.931,0,0,0,2.906,3.312h27.327V57.055a3.046,3.046,0,0,0-3.046-3.046H621.494V52.557a1.265,1.265,0,0,1,1.265-1.265h18.658a3.046,3.046,0,0,0,3.03-2.736l1.479-14.465a1.91,1.91,0,0,0-1.9-2.1M636.774,41.6a1.265,1.265,0,0,1-1.265,1.265h-12.3V41.675a1.265,1.265,0,0,1,1.265-1.265h12.3Z" transform="translate(-368.504 -19.247)" fill="#0d47a1"/>
    <path id="Path_42095" data-name="Path 42095" d="M428.373,130.439h-1.158l-.759,5.287h-1.718l.768-5.287h-.7l.164-1.553h.759a3.529,3.529,0,0,1,.792-2.146,2.416,2.416,0,0,1,1.768-.612,4.114,4.114,0,0,1,.731.067l-.1,1.581a3.183,3.183,0,0,0-.526-.047.975.975,0,0,0-.643.209,1.425,1.425,0,0,0-.316.949H428.6Z" transform="translate(-255.575 -75.894)" fill="#ef1866"/>
    <path id="Path_42096" data-name="Path 42096" d="M437.723,132.63a2.3,2.3,0,0,1,1.876.885,3.568,3.568,0,0,1,.716,2.317,4.517,4.517,0,0,1-.869,2.792,2.63,2.63,0,0,1-2.18,1.157,2.336,2.336,0,0,1-1.866-.874,3.3,3.3,0,0,1-.737-2.206,4.8,4.8,0,0,1,.848-2.913,2.623,2.623,0,0,1,2.212-1.157m-.008,1.325q-.734,0-1.017,1.048a8.257,8.257,0,0,0-.282,2.156q0,1.3.893,1.3.729,0,1-1.139a9.02,9.02,0,0,0,.27-2.065q0-1.3-.864-1.3" transform="translate(-261.547 -79.807)" fill="#ef1866"/>
    <path id="Path_42097" data-name="Path 42097" d="M454.5,134.793a1.671,1.671,0,0,0-.789.165,1.55,1.55,0,0,0-.57.6,3.235,3.235,0,0,0-.38.971q-.12.539-.283,1.742l-.215,1.48h-1.79l.994-6.84h1.659l-.222,1.574a4.752,4.752,0,0,1,.525-1.066,1.354,1.354,0,0,1,.539-.484,1.851,1.851,0,0,1,.714-.117Z" transform="translate(-271.06 -79.918)" fill="#ef1866"/>
    <path id="Path_42098" data-name="Path 42098" d="M475.478,139.659l.555-3.821a7.489,7.489,0,0,0,.088-.78q0-.8-.63-.8a.886.886,0,0,0-.686.366,3.79,3.79,0,0,0-.494,1.665l-.493,3.369h-1.66l.6-4.069a5.9,5.9,0,0,0,.07-.626q0-.74-.607-.74a.792.792,0,0,0-.585.273,1.512,1.512,0,0,0-.364.67,14.574,14.574,0,0,0-.252,1.466l-.441,3.026h-1.719l.994-6.84H471.4l-.17,1.177a2.777,2.777,0,0,1,.862-1.093,1.665,1.665,0,0,1,.856-.239q1.04,0,1.461,1.278a1.986,1.986,0,0,1,1.743-1.245,1.531,1.531,0,0,1,1.234.542,2.1,2.1,0,0,1,.456,1.4,10.432,10.432,0,0,1-.129,1.224l-.557,3.793Z" transform="translate(-282.121 -79.827)" fill="#ef1866"/>
    <path id="Path_42099" data-name="Path 42099" d="M496.913,132.63a2.3,2.3,0,0,1,1.875.885,3.568,3.568,0,0,1,.717,2.317,4.517,4.517,0,0,1-.869,2.792,2.63,2.63,0,0,1-2.18,1.157,2.336,2.336,0,0,1-1.866-.874,3.3,3.3,0,0,1-.737-2.206,4.8,4.8,0,0,1,.848-2.913,2.623,2.623,0,0,1,2.212-1.157m-.008,1.325q-.734,0-1.017,1.048a8.255,8.255,0,0,0-.282,2.156q0,1.3.893,1.3.729,0,1-1.139a9.023,9.023,0,0,0,.27-2.065q0-1.3-.864-1.3" transform="translate(-297.163 -79.807)" fill="#ef1866"/>
    <path id="Path_42100" data-name="Path 42100" d="M513.69,134.793a1.671,1.671,0,0,0-.789.165,1.55,1.55,0,0,0-.57.6,3.235,3.235,0,0,0-.38.971q-.12.539-.283,1.742l-.215,1.48h-1.79l.994-6.84h1.659l-.222,1.574a4.745,4.745,0,0,1,.525-1.066,1.354,1.354,0,0,1,.539-.484,1.85,1.85,0,0,1,.714-.117Z" transform="translate(-306.676 -79.918)" fill="#ef1866"/>
    <path id="Path_42101" data-name="Path 42101" d="M526.235,136.588h-3.841c-.023.224-.035.392-.035.5a1.475,1.475,0,0,0,.292,1,.914.914,0,0,0,.713.333q.836,0,1.186-1.09l1.461.283a3.335,3.335,0,0,1-1.011,1.6,2.565,2.565,0,0,1-1.736.615,2.365,2.365,0,0,1-1.906-.873,3.432,3.432,0,0,1-.73-2.278,4.706,4.706,0,0,1,.862-2.782,2.666,2.666,0,0,1,2.283-1.224,2.187,2.187,0,0,1,1.856.887,3.57,3.57,0,0,1,.663,2.2,8,8,0,0,1-.058.82m-3.718-1.13h2.145a3.235,3.235,0,0,0,.029-.408,1.172,1.172,0,0,0-.266-.824.841.841,0,0,0-.64-.288q-.982,0-1.268,1.52" transform="translate(-313.275 -79.837)" fill="#ef1866"/>
    <path id="Path_42102" data-name="Path 42102" d="M549.886,136.588h-3.841c-.023.224-.035.392-.035.5a1.476,1.476,0,0,0,.292,1,.914.914,0,0,0,.713.333q.836,0,1.187-1.09l1.461.283a3.335,3.335,0,0,1-1.011,1.6,2.565,2.565,0,0,1-1.736.615,2.365,2.365,0,0,1-1.906-.873,3.432,3.432,0,0,1-.73-2.278,4.707,4.707,0,0,1,.862-2.782,2.665,2.665,0,0,1,2.282-1.224,2.187,2.187,0,0,1,1.856.887,3.57,3.57,0,0,1,.663,2.2,7.99,7.99,0,0,1-.058.82m-3.717-1.13h2.145a3.234,3.234,0,0,0,.029-.408,1.172,1.172,0,0,0-.266-.824.841.841,0,0,0-.64-.288q-.982,0-1.268,1.52" transform="translate(-327.507 -79.837)" fill="#ef1866"/>
    <path id="Path_42103" data-name="Path 42103" d="M564.409,133.052l-2.253,3.265,1.417,3.576h-1.852l-.869-2.418-1.517,2.418h-1.52l2.474-3.667-1.3-3.173h1.9l.746,2,1.241-2Z" transform="translate(-335.65 -80.061)" fill="#ef1866"/>
    <path id="Path_42104" data-name="Path 42104" d="M579.5,137.285q-.754,2.556-2.741,2.556a2.258,2.258,0,0,1-1.914-.891,3.642,3.642,0,0,1-.675-2.263,4.686,4.686,0,0,1,.842-2.748,2.609,2.609,0,0,1,2.244-1.208,2.175,2.175,0,0,1,1.868.8,2.808,2.808,0,0,1,.593,1.705v.148l-1.543.107a1.418,1.418,0,0,0-.269-.971.815.815,0,0,0-.614-.293q-.579,0-.92.77a5.012,5.012,0,0,0-.342,2.015q0,1.258.906,1.258.8,0,1.116-1.2Z" transform="translate(-345.491 -79.867)" fill="#ef1866"/>
    <path id="Path_42105" data-name="Path 42105" d="M591.955,129.333l-.993,6.84h-1.79l.993-6.84Zm.357-2.462-.282,1.944h-1.79l.282-1.944Z" transform="translate(-354.519 -76.341)" fill="#ef1866"/>
    <path id="Path_42106" data-name="Path 42106" d="M601.68,131.7h-1.412l-.4,2.744a4.806,4.806,0,0,0-.063.585q0,.552.771.552a3.018,3.018,0,0,0,.619-.054l-.222,1.5a6.466,6.466,0,0,1-1.181.114q-1.771,0-1.771-1.654a10.443,10.443,0,0,1,.187-1.54l.4-2.247h-.917l.228-1.567h.995l.4-1.883,1.505-.047-.287,1.93h1.377Z" transform="translate(-359.643 -77.145)" fill="#ef1866"/>
    <path id="Path_42107" data-name="Path 42107" d="M614.216,136.588h-3.841c-.023.224-.035.392-.035.5a1.475,1.475,0,0,0,.292,1,.914.914,0,0,0,.713.333q.836,0,1.186-1.09l1.461.283a3.335,3.335,0,0,1-1.011,1.6,2.565,2.565,0,0,1-1.736.615,2.364,2.364,0,0,1-1.906-.873,3.431,3.431,0,0,1-.73-2.278,4.706,4.706,0,0,1,.862-2.782,2.666,2.666,0,0,1,2.283-1.224,2.186,2.186,0,0,1,1.856.887,3.569,3.569,0,0,1,.663,2.2,8,8,0,0,1-.058.82m-3.718-1.13h2.145a3.245,3.245,0,0,0,.029-.408,1.173,1.173,0,0,0-.266-.824.842.842,0,0,0-.64-.288q-.982,0-1.269,1.52" transform="translate(-366.215 -79.837)" fill="#ef1866"/>
    <path id="Path_42108" data-name="Path 42108" d="M630.97,139.659l.555-3.821a7.471,7.471,0,0,0,.088-.78q0-.8-.63-.8a.886.886,0,0,0-.686.366,3.789,3.789,0,0,0-.493,1.665l-.493,3.369h-1.66l.6-4.069a5.916,5.916,0,0,0,.07-.626q0-.74-.607-.74a.792.792,0,0,0-.586.273,1.511,1.511,0,0,0-.364.67,14.55,14.55,0,0,0-.252,1.466l-.441,3.026h-1.719l.994-6.84H626.9l-.17,1.177a2.778,2.778,0,0,1,.862-1.093,1.665,1.665,0,0,1,.856-.239q1.04,0,1.461,1.278a1.986,1.986,0,0,1,1.743-1.245,1.531,1.531,0,0,1,1.234.542,2.1,2.1,0,0,1,.456,1.4,10.441,10.441,0,0,1-.129,1.224l-.557,3.793Z" transform="translate(-375.684 -79.827)" fill="#ef1866"/>
    <path id="Path_42109" data-name="Path 42109" d="M654.818,136.588h-3.841c-.023.224-.035.392-.035.5a1.475,1.475,0,0,0,.292,1,.914.914,0,0,0,.713.333q.836,0,1.186-1.09l1.461.283a3.335,3.335,0,0,1-1.011,1.6,2.564,2.564,0,0,1-1.736.615,2.365,2.365,0,0,1-1.906-.873,3.431,3.431,0,0,1-.73-2.278,4.706,4.706,0,0,1,.862-2.782,2.665,2.665,0,0,1,2.282-1.224,2.187,2.187,0,0,1,1.856.887,3.57,3.57,0,0,1,.663,2.2,7.986,7.986,0,0,1-.058.82m-3.717-1.13h2.145a3.235,3.235,0,0,0,.029-.408,1.172,1.172,0,0,0-.266-.824.841.841,0,0,0-.64-.288q-.982,0-1.268,1.52" transform="translate(-390.647 -79.837)" fill="#ef1866"/>
    <path id="Path_42110" data-name="Path 42110" d="M667.555,132.868l-.189,1.3q.65-1.419,1.786-1.419a1.431,1.431,0,0,1,1.145.522,1.974,1.974,0,0,1,.442,1.321,11.309,11.309,0,0,1-.135,1.272l-.563,3.847h-1.713l.579-4a7.377,7.377,0,0,0,.087-.754q0-.72-.614-.72a.854.854,0,0,0-.59.246,1.414,1.414,0,0,0-.392.632,8.147,8.147,0,0,0-.239,1.208l-.491,3.383h-1.719l.994-6.84Z" transform="translate(-400.115 -79.877)" fill="#ef1866"/>
    <path id="Path_42111" data-name="Path 42111" d="M685.765,131.7h-1.412l-.4,2.744a4.789,4.789,0,0,0-.063.585q0,.552.771.552a3.02,3.02,0,0,0,.619-.054l-.222,1.5a6.464,6.464,0,0,1-1.181.114q-1.771,0-1.771-1.654a10.469,10.469,0,0,1,.187-1.54l.4-2.247h-.917l.228-1.567H683l.4-1.883,1.505-.047-.287,1.93h1.377Z" transform="translate(-410.239 -77.145)" fill="#ef1866"/>
    <path id="Path_42112" data-name="Path 42112" d="M676.394,37.194h-.986l-.531,3.651h-.9l.531-3.651h-.987l.123-.855h2.877Z" transform="translate(-405.272 -21.866)" fill="#fff"/>
    <path id="Path_42113" data-name="Path 42113" d="M685.413,36.339l-.655,4.506h-.916l.548-3.77-1.583,3.77h-.522l-.525-3.809-.554,3.809h-.739l.655-4.506h1.372l.349,2.756,1.148-2.756Z" transform="translate(-409.453 -21.866)" fill="#fff"/>
  </g>
</svg>
