<svg xmlns="http://www.w3.org/2000/svg" xmlns:xlink="http://www.w3.org/1999/xlink" width="24" height="24" viewBox="0 0 24 24">
  <defs>
    <clipPath id="clip-path">
      <rect id="Rectangle_179" data-name="Rectangle 179" width="24" height="24" transform="translate(99 462)" fill="#fff" stroke="#707070" stroke-width="1"/>
    </clipPath>
  </defs>
  <g id="Mask_Group_15" data-name="Mask Group 15" transform="translate(-99 -462)" clip-path="url(#clip-path)">
    <g id="candidates_1_" data-name="candidates (1)" transform="translate(98.819 461.643)">
      <path id="Path_298" data-name="Path 298" d="M8.411,12.84a1.083,1.083,0,0,1-1.085-1.08h0v-.875A2.885,2.885,0,0,1,9.667,8.054l1.446-.276h2.126l1.451.276a2.876,2.876,0,0,1,2.341,2.831v.875a1.084,1.084,0,0,1-1.085,1.085H8.411Z" fill="#f8664f"/>
      <path id="Path_299" data-name="Path 299" d="M14.69,8.049l-1.451-.276H11.812l1.446.276A2.88,2.88,0,0,1,15.6,10.88v.875a1.084,1.084,0,0,1-1.085,1.085h1.427a1.084,1.084,0,0,0,1.085-1.085h0V10.88A2.881,2.881,0,0,0,14.69,8.049Z" fill="#ef5848"/>
      <path id="Path_300" data-name="Path 300" d="M11.118,7.307v.88a1.062,1.062,0,0,0,1.061,1.061h0a1.062,1.062,0,0,0,1.061-1.061V7.3" fill="#d6d6d6"/>
      <path id="Path_301" data-name="Path 301" d="M12.259,7.307v.885a1.059,1.059,0,0,1-.571.942,1.059,1.059,0,0,0,1.432-.452,1.036,1.036,0,0,0,.119-.49V7.307Z" fill="#c1c1c1"/>
      <path id="Path_302" data-name="Path 302" d="M14.719,3.263V1.28A.913.913,0,0,0,13.91.357H9.633V1.651a.813.813,0,0,0,.8.809" fill="#595f74"/>
      <path id="Path_303" data-name="Path 303" d="M13.915.357H12.488a.913.913,0,0,1,.809.923V3l1.427.271V1.28A.921.921,0,0,0,13.915.357Z" fill="#4a4f60"/>
      <path id="Path_304" data-name="Path 304" d="M12.178,7.54h0A2.54,2.54,0,0,1,9.638,5V2.854a.394.394,0,0,1,.395-.395h4.291a.394.394,0,0,1,.395.395V5A2.54,2.54,0,0,1,12.178,7.54Z" fill="#d6d6d6"/>
      <path id="Path_305" data-name="Path 305" d="M14.324,2.459H12.9a.394.394,0,0,1,.395.395h0V5a2.549,2.549,0,0,1-1.827,2.44,2.585,2.585,0,0,0,.714.1h0A2.54,2.54,0,0,0,14.719,5V2.854a.394.394,0,0,0-.395-.395Z" fill="#c1c1c1"/>
      <circle id="Ellipse_24" data-name="Ellipse 24" cx="1.651" cy="1.651" r="1.651" transform="translate(16.731 8.991)" fill="#595f74"/>
      <path id="Path_306" data-name="Path 306" d="M12.178,21.617a3.179,3.179,0,0,1,2.26-1.713l1.6-.3h2.35l1.6.3a3.182,3.182,0,0,1,2.588,3.13v1.322H11.76Z" fill="#66c1ff"/>
      <path id="Path_307" data-name="Path 307" d="M19.985,19.9l-1.6-.3H16.955l1.6.3a3.182,3.182,0,0,1,2.588,3.13v1.322h1.427V23.03A3.176,3.176,0,0,0,19.985,19.9Z" fill="#4eb7ff"/>
      <path id="Path_308" data-name="Path 308" d="M16.036,19.081v.975a1.175,1.175,0,0,0,1.175,1.175h0a1.175,1.175,0,0,0,1.175-1.175h0v-.98" fill="#d6d6d6"/>
      <path id="Path_309" data-name="Path 309" d="M17.211,19.081v.975a1.178,1.178,0,0,1-.585,1.018,1.148,1.148,0,0,0,.585.157h0a1.175,1.175,0,0,0,1.175-1.175h0v-.975Z" fill="#c1c1c1"/>
      <path id="Path_310" data-name="Path 310" d="M20.018,14.614v-.4a2.812,2.812,0,0,0-2.8-2.811h0A2.8,2.8,0,0,0,14.4,14.2v.766Z" fill="#676e87"/>
      <path id="Path_311" data-name="Path 311" d="M17.211,11.4h0a2.769,2.769,0,0,0-.714.09A2.809,2.809,0,0,1,18.6,14.2v.4l-4.191.266v.09l5.618-.357v-.4a2.812,2.812,0,0,0-2.8-2.811Z" fill="#595f74"/>
      <path id="Path_312" data-name="Path 312" d="M17.211,19.338h0a2.81,2.81,0,0,0,2.811-2.807V14.438a1.871,1.871,0,0,1-1.589.086,1.778,1.778,0,0,1-.794-.714,2.885,2.885,0,0,1-1.289.766,2.973,2.973,0,0,1-1.946-.143v2.1A2.8,2.8,0,0,0,17.211,19.338Z" fill="#d6d6d6"/>
      <path id="Path_313" data-name="Path 313" d="M18.591,14.586v1.946a2.809,2.809,0,0,1-2.1,2.716,2.769,2.769,0,0,0,.714.09h0a2.81,2.81,0,0,0,2.811-2.807V14.438A1.934,1.934,0,0,1,18.591,14.586Z" fill="#c1c1c1"/>
      <path id="Path_314" data-name="Path 314" d="M1.784,24.357V23.03A3.186,3.186,0,0,1,4.372,19.9l1.6-.3H8.316l1.6.3a3.181,3.181,0,0,1,2.588,3.125v1.332" fill="#ffce00"/>
      <path id="Path_315" data-name="Path 315" d="M9.923,19.9l-1.6-.3H6.893l1.6.3a3.185,3.185,0,0,1,2.593,3.125v1.327h1.427V23.03A3.185,3.185,0,0,0,9.923,19.9Z" fill="#ffbc00"/>
      <path id="Path_316" data-name="Path 316" d="M5.97,19.081v.975a1.178,1.178,0,0,0,1.175,1.175h0A1.175,1.175,0,0,0,8.32,20.056h0v-.98" fill="#d6d6d6"/>
      <path id="Path_317" data-name="Path 317" d="M7.326,19.081v.975a1.175,1.175,0,0,1-.676,1.066,1.2,1.2,0,0,0,.5.109h0a1.175,1.175,0,0,0,1.175-1.175h0v-.98Z" fill="#c1c1c1"/>
      <path id="Path_318" data-name="Path 318" d="M9.957,14.614v-2.2a1.007,1.007,0,0,0-.89-1.018H4.339V12.83a.891.891,0,0,0,.89.89" fill="#676e87"/>
      <path id="Path_319" data-name="Path 319" d="M9.067,11.4H7.64a1.007,1.007,0,0,1,.89,1.018v1.927l1.427.271v-2.2A1.01,1.01,0,0,0,9.067,11.4Z" fill="#595f74"/>
      <path id="Path_320" data-name="Path 320" d="M7.145,19.338h0a2.81,2.81,0,0,1-2.811-2.807V14.162a.437.437,0,0,1,.438-.438H9.514a.437.437,0,0,1,.438.438h0v2.369a2.8,2.8,0,0,1-2.807,2.807Z" fill="#d6d6d6"/>
      <path id="Path_321" data-name="Path 321" d="M9.519,13.72H8.092a.437.437,0,0,1,.438.438h0v2.369a2.81,2.81,0,0,1-2.093,2.716,2.769,2.769,0,0,0,.714.09h0a2.809,2.809,0,0,0,2.807-2.807V14.157a.44.44,0,0,0-.438-.438Z" fill="#c1c1c1"/>
    </g>
  </g>
</svg>
