<svg xmlns="http://www.w3.org/2000/svg" xmlns:xlink="http://www.w3.org/1999/xlink" width="20" height="20" viewBox="0 0 20 20">
  <defs>
    <clipPath id="clip-path">
      <rect id="Rectangle_18225" data-name="Rectangle 18225" width="20" height="20" transform="translate(1736 120)" fill="#2b2b2b" stroke="#707070" stroke-width="1"/>
    </clipPath>
  </defs>
  <g id="Mask_Group_31" data-name="Mask Group 31" transform="translate(-1736 -120)" clip-path="url(#clip-path)">
    <path id="noun-profile-1771979" d="M9.708,11.66s.008,0,.016,0c.6,2.565,1.53,4.415,4.1,4.415s3.407-1.96,4.051-4.458a.409.409,0,0,0,.162.051c.462.055.917-.573,1.02-1.4s-.186-1.538-.64-1.6A4.369,4.369,0,0,0,13.83,3.921c-3.146,0-4.518,2.229-4.542,4.755-.431.107-.7.794-.6,1.589.107.822.557,1.451,1.02,1.4Zm10.648,6.19a11.292,11.292,0,0,1-2.142-.921,1.023,1.023,0,0,0-1.308.241c-.166.3-2.652,4.561-2.739,4.708-.119.221-.269.4-.328.4s-.206-.182-.328-.4l-2.7-4.526a1.054,1.054,0,0,0-1.4-.4,10.582,10.582,0,0,1-2.107.877C5.3,18.4,3.83,19.126,3.83,21.174v1.379a1.2,1.2,0,0,0,1.2,1.2h17.6a1.2,1.2,0,0,0,1.2-1.2V21.17c0-2.059-1.439-2.719-3.474-3.32Z" transform="translate(1732.17 116.162)" fill="#2b2b2b"/>
  </g>
</svg>
