<svg id="SvgjsSvg1001" width="288" height="288" xmlns="http://www.w3.org/2000/svg" version="1.1" xmlns:xlink="http://www.w3.org/1999/xlink" xmlns:svgjs="http://svgjs.com/svgjs"><defs id="SvgjsDefs1002"></defs><g id="SvgjsG1008"><svg xmlns="http://www.w3.org/2000/svg" xmlns:svgjs="http://svgjs.com/svgjs" xmlns:xlink="http://www.w3.org/1999/xlink" viewBox="0 0 288 288" width="288" height="288"><svg xmlns="http://www.w3.org/2000/svg" viewBox="0 0 20 20" width="288" height="288"><ellipse cx="1.575" cy="1.35" fill="#0d47a1" class="colorbfa29a svgShape color27a4fb" data-name="Ellipse 1" rx="1.575" ry="1.35" transform="translate(4.868 3.761)"></ellipse><path fill="#0d47a1" d="M322.8,304.751a.759.759,0,0,0-1.217,0l-1.462,2.193a.731.731,0,0,0,.608,1.137h.731v1.462a.731.731,0,1,0,1.462,0v-1.462h.731a.731.731,0,0,0,.608-1.137Z" class="colorbfa29a svgShape color27a4fb" data-name="Path 232" transform="translate(-307.992 -293.223)"></path><path fill="#0d47a1" d="M18.75,0H1.25A1.25,1.25,0,0,0,0,1.25v12.5A1.25,1.25,0,0,0,1.25,15H8.787A5.624,5.624,0,0,0,20,14.375V1.25A1.25,1.25,0,0,0,18.75,0ZM7.906,8.275a.626.626,0,0,0-.776-.03l-4.63,3.4V2.5h15V9.375S15.021,6.768,14.238,5.86a.648.648,0,0,0-.479-.235.629.629,0,0,0-.485.22L9.817,9.912ZM18.7,15a4.344,4.344,0,1,1,.05-.625A4.372,4.372,0,0,1,18.7,15Z" class="colorbfa29a svgShape color27a4fb" data-name="Path 233"></path></svg></svg></g></svg>