<svg xmlns="http://www.w3.org/2000/svg" xmlns:xlink="http://www.w3.org/1999/xlink" width="24" height="24" viewBox="0 0 24 24">
  <defs>
    <clipPath id="clip-path">
      <rect id="Rectangle_18536" data-name="Rectangle 18536" width="24" height="24" transform="translate(58 663)" fill="#fff" stroke="#707070" stroke-width="1"/>
    </clipPath>
  </defs>
  <g id="Mask_Group_507" data-name="Mask Group 507" transform="translate(-58 -663)" clip-path="url(#clip-path)">
    <g id="User" transform="translate(57.95 662.975)">
      <path id="Path_42114" data-name="Path 42114" d="M16.192,13.1h0a5.721,5.721,0,0,1,5.724,5.724h0v3.013a2.186,2.186,0,0,1-2.184,2.184H4.368a2.186,2.186,0,0,1-2.184-2.184V18.828A5.721,5.721,0,0,1,7.908,13.1Z" fill="#ed456a"/>
      <path id="Path_42115" data-name="Path 42115" d="M15.364,10.92v1.13a3.343,3.343,0,0,1-3.314,3.314h0A3.343,3.343,0,0,1,8.736,12.05V10.92Z" fill="#fcc37a"/>
      <path id="Path_42116" data-name="Path 42116" d="M18.6,6.552a6.552,6.552,0,0,1-13.1,0A2.825,2.825,0,0,1,5.573,5.8,6.479,6.479,0,0,1,12.8.075a6.638,6.638,0,0,1,5.8,5.8Z" fill="#ffd9aa"/>
      <path id="Path_42117" data-name="Path 42117" d="M18.6,5.8l-.9-.3L12.351,3.992a3.524,3.524,0,0,0-2.485.151L6.4,5.5l-.9.3a6.606,6.606,0,0,1,13.1,0Z" fill="#57565d"/>
    </g>
  </g>
</svg>
