<svg xmlns="http://www.w3.org/2000/svg" xmlns:xlink="http://www.w3.org/1999/xlink" width="24" height="24" viewBox="0 0 24 24">
  <defs>
    <clipPath id="clip-path">
      <rect id="Rectangle_18231" data-name="Rectangle 18231" width="24" height="24" transform="translate(100 462)" fill="#fff" stroke="#707070" stroke-width="1"/>
    </clipPath>
  </defs>
  <g id="Mask_Group_126" data-name="Mask Group 126" transform="translate(-100 -462)" clip-path="url(#clip-path)">
    <g id="setting" transform="translate(100 461.613)">
      <path id="Path_6985" data-name="Path 6985" d="M15.484,5.806V4.258h-.852a2.714,2.714,0,0,0-.465-1.084l.619-.619L13.7,1.471l-.619.619A2.714,2.714,0,0,0,12,1.626V.774H10.452v.852a2.714,2.714,0,0,0-1.084.465l-.619-.619L7.665,2.555l.619.619a2.714,2.714,0,0,0-.465,1.084H6.968V5.806h.852A2.714,2.714,0,0,0,8.284,6.89l-.619.619L8.748,8.594l.619-.619a2.714,2.714,0,0,0,1.084.465V9.29H12V8.439a2.714,2.714,0,0,0,1.084-.465l.619.619L14.787,7.51l-.619-.619a2.714,2.714,0,0,0,.465-1.084h.852ZM11.226,7.2h0A2.164,2.164,0,0,1,9.058,5.032h0a2.168,2.168,0,1,1,4.335,0A2.117,2.117,0,0,1,11.226,7.2Z" fill="#ffce00"/>
      <path id="Path_6986" data-name="Path 6986" d="M24,14.477V12.619H22.994a3.557,3.557,0,0,0-.542-1.239l.7-.7L21.832,9.368l-.7.7A8.6,8.6,0,0,0,19.9,9.523V8.516H18.039V9.523a3.557,3.557,0,0,0-1.239.542l-.7-.7-1.316,1.316.7.7a8.6,8.6,0,0,0-.542,1.239H13.935v1.858h1.006a3.557,3.557,0,0,0,.542,1.239l-.7.7L16.1,17.729l.7-.7a8.6,8.6,0,0,0,1.239.542v1.006H19.9V17.574a3.557,3.557,0,0,0,1.239-.542l.7.7,1.316-1.316-.7-.7a8.6,8.6,0,0,0,.542-1.239H24Zm-5.032,1.7A2.632,2.632,0,1,1,21.6,13.548,2.611,2.611,0,0,1,18.968,16.181Z" fill="#f8664f"/>
      <path id="Path_6987" data-name="Path 6987" d="M13.161,18.581V16.258H11.845a6.571,6.571,0,0,0-.7-1.7l.929-.929-1.7-1.7-.929.929a6.571,6.571,0,0,0-1.7-.7V10.839H5.419v1.316a6.571,6.571,0,0,0-1.7.7l-.929-.929-1.7,1.7.929.929a6.571,6.571,0,0,0-.7,1.7H0v2.323H1.316a6.571,6.571,0,0,0,.7,1.7l-.929.929,1.7,1.7.929-.929a6.571,6.571,0,0,0,1.7.7V24H7.742V22.684a6.571,6.571,0,0,0,1.7-.7l.929.929,1.7-1.7-.929-.929a6.571,6.571,0,0,0,.7-1.7h1.316ZM6.581,20.826a3.406,3.406,0,1,1,3.406-3.406A3.437,3.437,0,0,1,6.581,20.826Z" fill="#65c5ef"/>
    </g>
  </g>
</svg>
