<svg xmlns="http://www.w3.org/2000/svg" xmlns:xlink="http://www.w3.org/1999/xlink" width="17" height="17" viewBox="0 0 17 17">
  <defs>
    <clipPath id="clip-path">
      <rect id="Rectangle_17625" data-name="Rectangle 17625" width="17" height="17" transform="translate(8045 1639)" fill="#53585e" stroke="#707070" stroke-width="1"/>
    </clipPath>
  </defs>
  <g id="Mask_Group_103" data-name="Mask Group 103" transform="translate(-8045 -1639)" clip-path="url(#clip-path)">
    <g id="calendar-1" transform="translate(8044.012 1638.012)">
      <path id="Path_6103" data-name="Path 6103" d="M6.326,4.547a.6.6,0,0,1-.593-.593V1.581a.593.593,0,0,1,1.186,0V3.953A.6.6,0,0,1,6.326,4.547Z" fill="#53585e"/>
      <path id="Path_6104" data-name="Path 6104" d="M12.651,4.547a.6.6,0,0,1-.593-.593V1.581a.593.593,0,0,1,1.186,0V3.953A.6.6,0,0,1,12.651,4.547Z" fill="#53585e"/>
      <path id="Path_6105" data-name="Path 6105" d="M6.721,11.465a.787.787,0,0,1-.3-.063.759.759,0,0,1-.49-.727.787.787,0,0,1,.063-.3.913.913,0,0,1,.166-.261.816.816,0,0,1,.261-.166.807.807,0,0,1,.862.166.831.831,0,0,1,.229.561,1.188,1.188,0,0,1-.016.158.5.5,0,0,1-.047.142.6.6,0,0,1-.071.142,1.246,1.246,0,0,1-.095.119A.831.831,0,0,1,6.721,11.465Z" fill="#53585e"/>
      <path id="Path_6106" data-name="Path 6106" d="M9.488,11.465a.787.787,0,0,1-.3-.063.759.759,0,0,1-.49-.727.787.787,0,0,1,.063-.3.913.913,0,0,1,.166-.261.816.816,0,0,1,.261-.166.793.793,0,0,1,.862.166.831.831,0,0,1,.229.561,1.188,1.188,0,0,1-.016.158.5.5,0,0,1-.047.142.6.6,0,0,1-.071.142,1.246,1.246,0,0,1-.095.119A.831.831,0,0,1,9.488,11.465Z" fill="#53585e"/>
      <path id="Path_6107" data-name="Path 6107" d="M12.256,11.465a.787.787,0,0,1-.3-.063.816.816,0,0,1-.261-.166l-.095-.119a.6.6,0,0,1-.071-.142.5.5,0,0,1-.047-.142,1.188,1.188,0,0,1-.016-.158.831.831,0,0,1,.229-.561.816.816,0,0,1,.261-.166.79.79,0,0,1,.862.166.831.831,0,0,1,.229.561,1.188,1.188,0,0,1-.016.158.5.5,0,0,1-.047.142.6.6,0,0,1-.071.142,1.246,1.246,0,0,1-.095.119A.831.831,0,0,1,12.256,11.465Z" fill="#53585e"/>
      <path id="Path_6108" data-name="Path 6108" d="M6.721,14.232a.787.787,0,0,1-.3-.063A.913.913,0,0,1,6.16,14a.831.831,0,0,1-.229-.561.787.787,0,0,1,.063-.3.738.738,0,0,1,.166-.261.794.794,0,1,1,.561,1.352Z" fill="#53585e"/>
      <path id="Path_6109" data-name="Path 6109" d="M9.488,14.232a.783.783,0,0,1-.791-.791.787.787,0,0,1,.063-.3.738.738,0,0,1,.166-.261.828.828,0,0,1,1.123,0,.738.738,0,0,1,.166.261.787.787,0,0,1,.063.3.783.783,0,0,1-.791.791Z" fill="#53585e"/>
      <path id="Path_6110" data-name="Path 6110" d="M12.256,14.232A.831.831,0,0,1,11.694,14a.738.738,0,0,1-.166-.261.745.745,0,0,1,0-.6.738.738,0,0,1,.166-.261.789.789,0,0,1,.712-.213.477.477,0,0,1,.15.047.6.6,0,0,1,.142.071,1.246,1.246,0,0,1,.119.095.791.791,0,0,1-.561,1.352Z" fill="#53585e"/>
      <path id="Path_6111" data-name="Path 6111" d="M16.209,7.78H2.767a.593.593,0,1,1,0-1.186H16.209a.593.593,0,0,1,0,1.186Z" fill="#53585e"/>
      <path id="Path_6112" data-name="Path 6112" d="M12.651,17.988H6.326c-2.886,0-4.547-1.66-4.547-4.547V6.721c0-2.886,1.66-4.547,4.547-4.547h6.326c2.886,0,4.547,1.66,4.547,4.547v6.721C17.2,16.328,15.537,17.988,12.651,17.988ZM6.326,3.36c-2.261,0-3.36,1.1-3.36,3.36v6.721c0,2.261,1.1,3.36,3.36,3.36h6.326c2.261,0,3.36-1.1,3.36-3.36V6.721c0-2.261-1.1-3.36-3.36-3.36Z" fill="#53585e"/>
    </g>
  </g>
</svg>
