<svg xmlns="http://www.w3.org/2000/svg" xmlns:xlink="http://www.w3.org/1999/xlink" width="24" height="24" viewBox="0 0 24 24">
  <defs>
    <clipPath id="clip-path">
      <rect id="Rectangle_171" data-name="Rectangle 171" width="24" height="24" transform="translate(99 346)" fill="#fff" stroke="#707070" stroke-width="1"/>
    </clipPath>
  </defs>
  <g id="Mask_Group_10" data-name="Mask Group 10" transform="translate(-99 -346)" clip-path="url(#clip-path)">
    <g id="cinema-reel-2" transform="translate(98.961 345.962)">
      <path id="Path_229" data-name="Path 229" d="M23.8,13.686H1.317a.236.236,0,0,0-.234.239v8.38a1.285,1.285,0,0,0,.384.919,1.324,1.324,0,0,0,.923.384H22.732a1.3,1.3,0,0,0,.9-.366l.019-.014a1.3,1.3,0,0,0,.384-.919V13.925h0A.237.237,0,0,0,23.8,13.686Z" fill="#dbdddb"/>
      <path id="Path_230" data-name="Path 230" d="M23.65,9.707a1.307,1.307,0,0,0-.923-.384H2.39a1.312,1.312,0,0,0-1.308,1.3v2.433a.239.239,0,0,0,.234.239H23.8a.24.24,0,0,0,.239-.239V10.625A1.282,1.282,0,0,0,23.65,9.707Z" fill="#65c5ef"/>
      <g id="Group_76" data-name="Group 76">
        <path id="Path_231" data-name="Path 231" d="M15.982,4.968a.577.577,0,0,1-.094-.009.215.215,0,0,1-.178-.145l-.427-1.584a.216.216,0,0,1,.084-.216.545.545,0,0,1,.22-.112c.089-.023.183-.052.272-.075.173-.047.356-.1.525-.136a.548.548,0,0,1,.15-.019.472.472,0,0,1,.089.009.212.212,0,0,1,.178.141c.042.159.094.328.145.506.112.38.225.773.286,1.092a.21.21,0,0,1-.089.2.589.589,0,0,1-.216.112c-.127.028-.258.066-.384.1s-.277.08-.412.108A.418.418,0,0,1,15.982,4.968Z" fill="#f9e109"/>
        <path id="Path_232" data-name="Path 232" d="M16.535,2.817h0a.288.288,0,0,1,.066,0c.023,0,.066.014.07.042.042.159.094.328.145.511A10.579,10.579,0,0,1,17.1,4.453c0,.023-.033.061-.042.07h0a.459.459,0,0,1-.155.08c-.131.033-.262.07-.394.1s-.272.08-.408.108H16.09a.462.462,0,0,1-.112.014.288.288,0,0,1-.066,0c-.023,0-.066-.014-.07-.042L15.42,3.2c0-.023.019-.052.042-.075a.454.454,0,0,1,.164-.084c.089-.023.183-.052.277-.075.173-.047.352-.1.516-.136h.009a.769.769,0,0,1,.108-.009m0-.281a.809.809,0,0,0-.178.023c-.262.061-.539.145-.8.211h0a.732.732,0,0,0-.277.141.349.349,0,0,0-.127.356l.427,1.584a.339.339,0,0,0,.286.244.515.515,0,0,0,.122.009.809.809,0,0,0,.178-.023c.267-.061.534-.15.8-.216a.7.7,0,0,0,.277-.141.357.357,0,0,0,.131-.333c-.089-.478-.3-1.12-.436-1.608a.339.339,0,0,0-.286-.244c-.037,0-.075,0-.117,0Z" fill="#f9e109"/>
      </g>
      <g id="Group_77" data-name="Group 77">
        <path id="Path_233" data-name="Path 233" d="M19.123,4.129a.577.577,0,0,1-.094-.009.217.217,0,0,1-.178-.145L18.424,2.39a.216.216,0,0,1,.084-.216.545.545,0,0,1,.22-.112c.075-.019.15-.042.225-.061.192-.052.384-.108.572-.15a.571.571,0,0,1,.15-.019.519.519,0,0,1,.089.009.221.221,0,0,1,.183.145c.042.155.094.328.145.511a10.71,10.71,0,0,1,.281,1.087.216.216,0,0,1-.084.2.553.553,0,0,1-.216.112c-.136.033-.267.07-.4.108s-.267.075-.4.108A.863.863,0,0,1,19.123,4.129Z" fill="#f9e109"/>
        <path id="Path_234" data-name="Path 234" d="M19.676,1.978h0c.028,0,.052,0,.066,0s.066.019.07.042c.042.159.094.328.145.511.108.375.225.764.281,1.073h0c0,.028-.033.061-.042.07a.392.392,0,0,1-.159.08c-.136.033-.272.07-.4.108s-.267.075-.394.108a.5.5,0,0,1-.117.014.229.229,0,0,1-.061,0c-.019,0-.066-.019-.07-.042l-.427-1.584q-.007-.028.042-.07a.384.384,0,0,1,.164-.08c.075-.019.15-.042.225-.061.187-.052.384-.108.562-.145h.009a.225.225,0,0,1,.108-.023m0-.281a.809.809,0,0,0-.178.023c-.262.061-.539.141-.8.211h0a.67.67,0,0,0-.277.141.338.338,0,0,0-.127.356l.427,1.584a.345.345,0,0,0,.286.244.475.475,0,0,0,.117.009.888.888,0,0,0,.183-.023c.267-.061.534-.155.806-.216a.707.707,0,0,0,.277-.145.357.357,0,0,0,.131-.333c-.089-.478-.3-1.12-.431-1.608A.351.351,0,0,0,19.8,1.7a1.056,1.056,0,0,1-.122,0Z" fill="#f9e109"/>
      </g>
      <path id="Path_235" data-name="Path 235" d="M23.013,2.929l-.459-1.7a1.024,1.024,0,0,0-.469-.614L22.075.6A1.038,1.038,0,0,0,21.3.5L.8,5.981h0a1.026,1.026,0,0,0-.623.478,1,1,0,0,0-.1.773l.459,1.7a1.034,1.034,0,0,0,.478.619,1.023,1.023,0,0,0,.773.1l20.5-5.474A1.026,1.026,0,0,0,22.91,3.7,1,1,0,0,0,23.013,2.929Z" fill="#65c5ef"/>
      <path id="Path_236" data-name="Path 236" d="M10.25,4.214a.935.935,0,0,0-.192.023l-.792.211h0a.736.736,0,0,0-.258.127l-.019.014a.341.341,0,0,0-.127.356l.427,1.584a.339.339,0,0,0,.286.244.515.515,0,0,0,.122.009.706.706,0,0,0,.192-.028l.792-.211a.707.707,0,0,0,.277-.145.349.349,0,0,0,.131-.333c-.08-.464-.3-1.13-.431-1.608a.345.345,0,0,0-.291-.244Z" fill="#ffce00"/>
      <path id="Path_237" data-name="Path 237" d="M3.965,5.887a.85.85,0,0,0-.183.023c-.262.061-.539.145-.8.216h0a.732.732,0,0,0-.277.141.341.341,0,0,0-.127.356L3,8.207a.345.345,0,0,0,.286.244.515.515,0,0,0,.122.009.809.809,0,0,0,.178-.023c.267-.061.534-.15.806-.216a.707.707,0,0,0,.277-.145A.357.357,0,0,0,4.8,7.743c-.089-.478-.3-1.12-.431-1.608a.351.351,0,0,0-.291-.244c-.037,0-.075,0-.117,0Z" fill="#ffce00"/>
      <path id="Path_238" data-name="Path 238" d="M7.105,5.052a.809.809,0,0,0-.178.023c-.262.056-.539.141-.8.211h0a.642.642,0,0,0-.277.141.341.341,0,0,0-.127.356l.427,1.584a.351.351,0,0,0,.291.244.475.475,0,0,0,.117.009A.85.85,0,0,0,6.74,7.6c.267-.061.534-.15.806-.216a.624.624,0,0,0,.277-.145A.357.357,0,0,0,7.954,6.9c-.089-.478-.3-1.12-.431-1.608a.339.339,0,0,0-.286-.244Z" fill="#ffce00"/>
      <path id="Path_239" data-name="Path 239" d="M13.4,3.375a.767.767,0,0,0-.2.028l-.787.206h0a.779.779,0,0,0-.258.127l-.019.014a.349.349,0,0,0-.127.356l.427,1.584a.339.339,0,0,0,.286.244.515.515,0,0,0,.122.009.935.935,0,0,0,.192-.023l.792-.211a.7.7,0,0,0,.277-.141.345.345,0,0,0,.131-.328c-.08-.464-.3-1.134-.431-1.608a.345.345,0,0,0-.286-.244.362.362,0,0,0-.122-.014Z" fill="#ffce00"/>
      <path id="Path_240" data-name="Path 240" d="M4.832,10.1H4.017a.694.694,0,0,0-.3.066.348.348,0,0,0-.216.309v1.64a.348.348,0,0,0,.216.309.7.7,0,0,0,.3.07h.816a.664.664,0,0,0,.3-.07.353.353,0,0,0,.216-.309V10.48a.348.348,0,0,0-.216-.309.665.665,0,0,0-.3-.066Z" fill="#ffce00"/>
      <path id="Path_241" data-name="Path 241" d="M21.1,10.1h-.816a.679.679,0,0,0-.3.066.348.348,0,0,0-.216.309v1.64a.348.348,0,0,0,.216.309.7.7,0,0,0,.3.07H21.1a.7.7,0,0,0,.3-.07.353.353,0,0,0,.216-.309V10.48a.348.348,0,0,0-.216-.309.679.679,0,0,0-.3-.066Z" fill="#eef0ee"/>
      <path id="Path_242" data-name="Path 242" d="M17.848,10.1h-.816a.679.679,0,0,0-.3.066.348.348,0,0,0-.216.309v1.64a.34.34,0,0,0,.216.309.679.679,0,0,0,.3.07h.816a.7.7,0,0,0,.3-.07.353.353,0,0,0,.216-.309V10.48a.348.348,0,0,0-.216-.309.694.694,0,0,0-.3-.066Z" fill="#eef0ee"/>
      <path id="Path_243" data-name="Path 243" d="M14.6,10.1H13.78a.679.679,0,0,0-.3.066.348.348,0,0,0-.216.309v1.64a.348.348,0,0,0,.216.309.7.7,0,0,0,.3.07H14.6a.679.679,0,0,0,.3-.07.348.348,0,0,0,.211-.309V10.48a.343.343,0,0,0-.211-.309.694.694,0,0,0-.3-.066Z" fill="#eef0ee"/>
      <path id="Path_244" data-name="Path 244" d="M11.342,10.1h-.816a.679.679,0,0,0-.3.066.348.348,0,0,0-.216.309v1.64a.348.348,0,0,0,.216.309.7.7,0,0,0,.3.07h.816a.679.679,0,0,0,.3-.07.353.353,0,0,0,.216-.309V10.48a.348.348,0,0,0-.216-.309.694.694,0,0,0-.3-.066Z" fill="#eef0ee"/>
      <path id="Path_245" data-name="Path 245" d="M8.09,10.1H7.274a.679.679,0,0,0-.3.066.348.348,0,0,0-.216.309v1.64a.34.34,0,0,0,.216.309.679.679,0,0,0,.3.07H8.09a.7.7,0,0,0,.3-.07.345.345,0,0,0,.216-.309V10.48a.348.348,0,0,0-.216-.309.694.694,0,0,0-.3-.066Z" fill="#ffce00"/>
      <path id="Path_246" data-name="Path 246" d="M20.154,17.44H4.963a.52.52,0,0,0,0,1.04h15.19a.52.52,0,1,0,0-1.04Z" fill="#f8664f"/>
      <path id="Path_247" data-name="Path 247" d="M20.154,19.737H4.963a.518.518,0,1,0,0,1.036h15.19a.518.518,0,1,0,0-1.036Z" fill="#f8664f"/>
    </g>
  </g>
</svg>
