<svg xmlns="http://www.w3.org/2000/svg" xmlns:xlink="http://www.w3.org/1999/xlink" width="20" height="20" viewBox="0 0 20 20">
  <defs>
    <clipPath id="clip-path">
      <rect id="Rectangle_664" data-name="Rectangle 664" width="20" height="20" fill="#333" stroke="#707070" stroke-width="1"/>
    </clipPath>
  </defs>
  <g id="Mask_Group_19" data-name="Mask Group 19" clip-path="url(#clip-path)">
    <g id="edit-2" transform="translate(0.857 0)">
      <path id="Path_6094" data-name="Path 6094" d="M4.591,18.078A2.154,2.154,0,0,1,3.1,17.514a2.239,2.239,0,0,1-.639-1.908L2.8,12.561a3.389,3.389,0,0,1,.818-1.748L11.34,2.644c1.927-2.04,3.939-2.1,5.978-.169s2.1,3.939.169,5.978L9.77,16.621a3.389,3.389,0,0,1-1.7.912l-3.027.517C4.882,18.06,4.741,18.078,4.591,18.078ZM14.358,2.465a2.871,2.871,0,0,0-1.993,1.128L4.647,11.771a2.171,2.171,0,0,0-.442.94l-.348,3.046a.826.826,0,0,0,.207.724.847.847,0,0,0,.733.169l3.027-.517a2.1,2.1,0,0,0,.912-.489l7.717-8.169c1.166-1.241,1.589-2.388-.113-3.986A2.972,2.972,0,0,0,14.358,2.465Z" transform="translate(-1.498 -1.07)" fill="#333"/>
      <path id="Path_6095" data-name="Path 6095" d="M14.185,9.477h-.066A6.448,6.448,0,0,1,8.376,4.044a.709.709,0,1,1,1.4-.216,5.05,5.05,0,0,0,4.493,4.249.706.706,0,0,1,.63.771A.728.728,0,0,1,14.185,9.477Z" transform="translate(0 -0.525)" fill="#333"/>
      <path id="Path_6096" data-name="Path 6096" d="M19.313,17.355H2.393a.705.705,0,0,1,0-1.41h16.92a.705.705,0,1,1,0,1.41Z" transform="translate(-1.688 2.69)" fill="#333"/>
    </g>
  </g>
</svg>
