<svg xmlns="http://www.w3.org/2000/svg" xmlns:xlink="http://www.w3.org/1999/xlink" width="20" height="20" viewBox="0 0 20 20">
  <defs>
    <clipPath id="clip-path">
      <rect id="Rectangle_18465" data-name="Rectangle 18465" width="20" height="20" transform="translate(1421 147)" fill="#0d47a1" stroke="#707070" stroke-width="1"/>
    </clipPath>
  </defs>
  <g id="Mask_Group_307" data-name="Mask Group 307" transform="translate(-1421 -147)" clip-path="url(#clip-path)">
    <g id="category" transform="translate(1419.837 145.837)">
      <path id="Path_41985" data-name="Path 41985" d="M6.512,10H4.651A3.145,3.145,0,0,1,1.163,6.512V4.651A3.145,3.145,0,0,1,4.651,1.163h1.86A3.145,3.145,0,0,1,10,4.651v1.86A3.145,3.145,0,0,1,6.512,10ZM4.651,2.558c-1.47,0-2.093.623-2.093,2.093v1.86c0,1.47.623,2.093,2.093,2.093h1.86C7.981,8.6,8.6,7.981,8.6,6.512V4.651c0-1.47-.623-2.093-2.093-2.093Z" fill="#0d47a1"/>
      <path id="Path_41986" data-name="Path 41986" d="M17.674,10h-1.86a3.145,3.145,0,0,1-3.488-3.488V4.651a3.145,3.145,0,0,1,3.488-3.488h1.86a3.145,3.145,0,0,1,3.488,3.488v1.86A3.145,3.145,0,0,1,17.674,10Zm-1.86-7.442c-1.47,0-2.093.623-2.093,2.093v1.86c0,1.47.623,2.093,2.093,2.093h1.86c1.47,0,2.093-.623,2.093-2.093V4.651c0-1.47-.623-2.093-2.093-2.093Z" fill="#0d47a1"/>
      <path id="Path_41987" data-name="Path 41987" d="M17.674,21.163h-1.86a3.145,3.145,0,0,1-3.488-3.488v-1.86a3.145,3.145,0,0,1,3.488-3.488h1.86a3.145,3.145,0,0,1,3.488,3.488v1.86A3.145,3.145,0,0,1,17.674,21.163Zm-1.86-7.442c-1.47,0-2.093.623-2.093,2.093v1.86c0,1.47.623,2.093,2.093,2.093h1.86c1.47,0,2.093-.623,2.093-2.093v-1.86c0-1.47-.623-2.093-2.093-2.093Z" fill="#0d47a1"/>
      <path id="Path_41988" data-name="Path 41988" d="M6.512,21.163H4.651a3.145,3.145,0,0,1-3.488-3.488v-1.86a3.145,3.145,0,0,1,3.488-3.488h1.86A3.145,3.145,0,0,1,10,15.814v1.86A3.145,3.145,0,0,1,6.512,21.163Zm-1.86-7.442c-1.47,0-2.093.623-2.093,2.093v1.86c0,1.47.623,2.093,2.093,2.093h1.86c1.47,0,2.093-.623,2.093-2.093v-1.86c0-1.47-.623-2.093-2.093-2.093Z" fill="#0d47a1"/>
    </g>
  </g>
</svg>
