<svg xmlns="http://www.w3.org/2000/svg" xmlns:xlink="http://www.w3.org/1999/xlink" width="24" height="24" viewBox="0 0 24 24">
  <defs>
    <clipPath id="clip-path">
      <rect id="Rectangle_18227" data-name="Rectangle 18227" width="24" height="24" transform="translate(-345 446.5)" fill="#fff" stroke="#707070" stroke-width="1"/>
    </clipPath>
  </defs>
  <g id="Mask_Group_123" data-name="Mask Group 123" transform="translate(345 -446.5)" clip-path="url(#clip-path)">
    <g id="group" transform="translate(-345.387 445.722)">
      <path id="Path_6948" data-name="Path 6948" d="M13.839,5.806h0a2.032,2.032,0,0,1,2.032,2.032V8.9a.774.774,0,0,1-.774.774H9.677A.774.774,0,0,1,8.9,8.9V7.839a2.032,2.032,0,0,1,2.032-2.032Z" fill="#ed456a"/>
      <path id="Path_6949" data-name="Path 6949" d="M13.548,5.032v.387a1.161,1.161,0,0,1-1.161,1.161h0a1.161,1.161,0,0,1-1.161-1.161V5.032Z" fill="#fcc37a"/>
      <path id="Path_6950" data-name="Path 6950" d="M14.71,3.484a2.323,2.323,0,0,1-4.645,0c0-.085.008-.17.015-.255a2.323,2.323,0,0,1,4.614-.008C14.7,3.306,14.71,3.4,14.71,3.484Z" fill="#ffd9aa"/>
      <path id="Path_6951" data-name="Path 6951" d="M14.694,3.221l-.317-.108-1.9-.534a1.261,1.261,0,0,0-.859.046L10.4,3.112l-.317.116a2.323,2.323,0,0,1,4.614-.008Z" fill="#57565d"/>
      <path id="Path_6952" data-name="Path 6952" d="M18.484,12.774h0a2.032,2.032,0,0,1,2.032,2.032v1.065a.774.774,0,0,1-.774.774H14.323a.774.774,0,0,1-.774-.774V14.806a2.032,2.032,0,0,1,2.032-2.032Z" fill="#82c8ec"/>
      <path id="Path_6953" data-name="Path 6953" d="M18.194,12v.387a1.161,1.161,0,0,1-1.161,1.161h0a1.161,1.161,0,0,1-1.161-1.161V12Z" fill="#fcc37a"/>
      <path id="Path_6954" data-name="Path 6954" d="M19.355,10.452a2.323,2.323,0,1,1-4.645,0c0-.085.008-.17.015-.255a2.323,2.323,0,0,1,4.614-.008C19.347,10.274,19.355,10.366,19.355,10.452Z" fill="#ffd9aa"/>
      <path id="Path_6955" data-name="Path 6955" d="M19.339,10.188l-.317-.108-1.9-.534a1.261,1.261,0,0,0-.859.046l-1.223.488-.317.116a2.323,2.323,0,0,1,4.614-.008Z" fill="#57565d"/>
      <path id="Path_6956" data-name="Path 6956" d="M9.194,12.774h0a2.032,2.032,0,0,1,2.032,2.032v1.065a.774.774,0,0,1-.774.774H5.032a.774.774,0,0,1-.774-.774V14.806A2.032,2.032,0,0,1,6.29,12.774Z" fill="#55bb8c"/>
      <path id="Path_6957" data-name="Path 6957" d="M8.9,12v.387a1.161,1.161,0,0,1-1.161,1.161h0a1.161,1.161,0,0,1-1.161-1.161V12Z" fill="#fcc37a"/>
      <path id="Path_6958" data-name="Path 6958" d="M10.065,10.452a2.323,2.323,0,0,1-4.645,0c0-.085.008-.17.015-.255a2.323,2.323,0,0,1,4.614-.008C10.057,10.274,10.065,10.366,10.065,10.452Z" fill="#ffd9aa"/>
      <path id="Path_6959" data-name="Path 6959" d="M10.049,10.188l-.317-.108-1.9-.534a1.261,1.261,0,0,0-.859.046l-1.223.488-.317.116a2.323,2.323,0,0,1,4.614-.008Z" fill="#57565d"/>
      <path id="Path_6960" data-name="Path 6960" d="M5.323,20.516h0a2.032,2.032,0,0,1,2.032,2.032v1.065a.774.774,0,0,1-.774.774H1.161a.774.774,0,0,1-.774-.774V22.548a2.032,2.032,0,0,1,2.032-2.032Z" fill="#fbde53"/>
      <path id="Path_6961" data-name="Path 6961" d="M5.032,19.742v.387A1.161,1.161,0,0,1,3.871,21.29h0A1.161,1.161,0,0,1,2.71,20.129v-.387Z" fill="#fcc37a"/>
      <path id="Path_6962" data-name="Path 6962" d="M6.194,18.194a2.323,2.323,0,0,1-4.645,0c0-.085.008-.17.015-.255a2.323,2.323,0,0,1,4.614-.008C6.186,18.015,6.194,18.108,6.194,18.194Z" fill="#ffd9aa"/>
      <path id="Path_6963" data-name="Path 6963" d="M6.178,17.93l-.317-.108-1.9-.534a1.261,1.261,0,0,0-.859.046l-1.223.488-.317.116a2.323,2.323,0,0,1,4.614-.008Z" fill="#57565d"/>
      <path id="Path_6964" data-name="Path 6964" d="M13.839,20.516h0a2.032,2.032,0,0,1,2.032,2.032v1.065a.774.774,0,0,1-.774.774H9.677a.774.774,0,0,1-.774-.774V22.548a2.032,2.032,0,0,1,2.032-2.032Z" fill="#416fb3"/>
      <path id="Path_6965" data-name="Path 6965" d="M13.548,19.742v.387a1.161,1.161,0,0,1-1.161,1.161h0a1.161,1.161,0,0,1-1.161-1.161v-.387Z" fill="#fcc37a"/>
      <path id="Path_6966" data-name="Path 6966" d="M14.71,18.194a2.323,2.323,0,0,1-4.645,0c0-.085.008-.17.015-.255a2.323,2.323,0,0,1,4.614-.008C14.7,18.015,14.71,18.108,14.71,18.194Z" fill="#ffd9aa"/>
      <path id="Path_6967" data-name="Path 6967" d="M14.694,17.93l-.317-.108-1.9-.534a1.261,1.261,0,0,0-.859.046l-1.223.488-.317.116a2.323,2.323,0,0,1,4.614-.008Z" fill="#57565d"/>
      <path id="Path_6968" data-name="Path 6968" d="M22.355,20.516h0a2.032,2.032,0,0,1,2.032,2.032v1.065a.774.774,0,0,1-.774.774H18.194a.774.774,0,0,1-.774-.774V22.548a2.032,2.032,0,0,1,2.032-2.032Z" fill="#f59831"/>
      <path id="Path_6969" data-name="Path 6969" d="M22.065,19.742v.387A1.161,1.161,0,0,1,20.9,21.29h0a1.161,1.161,0,0,1-1.161-1.161v-.387Z" fill="#fcc37a"/>
      <path id="Path_6970" data-name="Path 6970" d="M23.226,18.194a2.323,2.323,0,0,1-4.645,0c0-.085.008-.17.015-.255a2.323,2.323,0,0,1,4.614-.008C23.218,18.015,23.226,18.108,23.226,18.194Z" fill="#ffd9aa"/>
      <path id="Path_6971" data-name="Path 6971" d="M23.21,17.93l-.317-.108L21,17.288a1.261,1.261,0,0,0-.859.046l-1.223.488-.317.116a2.323,2.323,0,0,1,4.614-.008Z" fill="#57565d"/>
    </g>
  </g>
</svg>
