<svg xmlns="http://www.w3.org/2000/svg" xmlns:xlink="http://www.w3.org/1999/xlink" width="16" height="16" viewBox="0 0 16 16">
  <defs>
    <clipPath id="clip-path">
      <rect id="Rectangle_18495" data-name="Rectangle 18495" width="16" height="16" transform="translate(1752 393)" fill="#333" stroke="#707070" stroke-width="1"/>
    </clipPath>
  </defs>
  <g id="Mask_Group_315" data-name="Mask Group 315" transform="translate(-1752 -393)" clip-path="url(#clip-path)">
    <g id="trash" transform="translate(1751.074 392.07)">
      <path id="Path_42010" data-name="Path 42010" d="M15.628,5.008h-.06A58.624,58.624,0,0,0,3.81,4.859l-1.518.149A.562.562,0,0,1,1.674,4.5a.554.554,0,0,1,.5-.61l1.518-.149a60.386,60.386,0,0,1,11.989.149.559.559,0,0,1,.5.61A.551.551,0,0,1,15.628,5.008Z" fill="#333"/>
      <path id="Path_42011" data-name="Path 42011" d="M6.326,4.257a.458.458,0,0,1-.1-.007.56.56,0,0,1-.454-.64l.164-.975c.119-.714.283-1.7,2.017-1.7h1.95c1.741,0,1.905,1.027,2.017,1.712l.164.967a.555.555,0,0,1-1.094.186l-.164-.967c-.1-.647-.127-.774-.915-.774H7.963c-.789,0-.8.1-.915.767l-.171.967A.558.558,0,0,1,6.326,4.257Z" fill="#333"/>
      <path id="Path_42012" data-name="Path 42012" d="M11.319,16.93H6.542c-2.6,0-2.7-1.436-2.783-2.6L3.275,6.839a.559.559,0,0,1,1.116-.074l.484,7.494c.082,1.131.112,1.555,1.667,1.555h4.778c1.563,0,1.593-.424,1.667-1.555l.484-7.494a.569.569,0,0,1,.6-.521.559.559,0,0,1,.521.6L14.1,14.333C14.021,15.494,13.917,16.93,11.319,16.93Z" fill="#333"/>
      <path id="Path_42013" data-name="Path 42013" d="M10.166,12.837H7.687a.558.558,0,1,1,0-1.116h2.478a.558.558,0,1,1,0,1.116Z" fill="#333"/>
      <path id="Path_42014" data-name="Path 42014" d="M10.791,9.86H7.07a.558.558,0,0,1,0-1.116h3.721a.558.558,0,0,1,0,1.116Z" fill="#333"/>
    </g>
  </g>
</svg>
